<svg xmlns="http://www.w3.org/2000/svg" xmlns:xlink="http://www.w3.org/1999/xlink" width="600" zoomAndPan="magnify" viewBox="0 0 450 449.999984" height="600" preserveAspectRatio="xMidYMid meet" version="1.0"><defs><g/><clipPath id="2984ec5610"><path d="M 114.554688 174.882812 L 321.089844 174.882812 L 321.089844 337 L 114.554688 337 Z M 114.554688 174.882812 " clip-rule="nonzero"/></clipPath><clipPath id="8de92484a7"><path d="M 321.089844 244.167969 L 315.34375 244.167969 L 315.34375 337.089844 L 161.949219 337.089844 L 161.949219 303.347656 L 141.398438 303.347656 L 141.398438 337.089844 L 120.300781 337.089844 L 120.300781 268.957031 L 114.554688 268.957031 L 154.453125 233.496094 L 173.167969 250.132812 L 173.167969 223.808594 L 169.023438 223.808594 L 224.0625 174.882812 L 271.652344 217.1875 L 281.195312 208.703125 Z M 321.089844 244.167969 " clip-rule="nonzero"/></clipPath></defs><rect x="-45" width="540" fill="#ffffff" y="-44.999998" height="539.99998" fill-opacity="1"/><rect x="-45" width="540" fill="#f1f1f1" y="-44.999998" height="539.99998" fill-opacity="1"/><g clip-path="url(#2984ec5610)"><g clip-path="url(#8de92484a7)"><path fill="#dedede" d="M 114.554688 174.882812 L 321.089844 174.882812 L 321.089844 337 L 114.554688 337 Z M 114.554688 174.882812 " fill-opacity="1" fill-rule="nonzero"/></g></g><g fill="#dddddd" fill-opacity="1"><g transform="translate(95.429701, 135.856111)"><g><path d="M 7.9375 -8.84375 C 8.695312 -8.84375 9.28125 -9.015625 9.6875 -9.359375 C 10.09375 -9.710938 10.296875 -10.253906 10.296875 -10.984375 C 10.296875 -11.671875 10.082031 -12.195312 9.65625 -12.5625 C 9.238281 -12.9375 8.617188 -13.125 7.796875 -13.125 C 7.515625 -13.125 7.273438 -13.117188 7.078125 -13.109375 C 6.890625 -13.109375 6.695312 -13.085938 6.5 -13.046875 L 6.5 -8.84375 Z M 6.53125 -0.109375 C 6.320312 -0.0546875 6.003906 -0.00390625 5.578125 0.046875 C 5.160156 0.109375 4.742188 0.140625 4.328125 0.140625 C 3.910156 0.140625 3.539062 0.109375 3.21875 0.046875 C 2.90625 -0.015625 2.640625 -0.128906 2.421875 -0.296875 C 2.203125 -0.460938 2.035156 -0.6875 1.921875 -0.96875 C 1.816406 -1.257812 1.765625 -1.644531 1.765625 -2.125 L 1.765625 -14.921875 C 1.765625 -15.304688 1.867188 -15.601562 2.078125 -15.8125 C 2.285156 -16.019531 2.570312 -16.1875 2.9375 -16.3125 C 3.550781 -16.53125 4.25 -16.6875 5.03125 -16.78125 C 5.820312 -16.882812 6.617188 -16.9375 7.421875 -16.9375 C 9.921875 -16.9375 11.832031 -16.398438 13.15625 -15.328125 C 14.476562 -14.265625 15.140625 -12.816406 15.140625 -10.984375 C 15.140625 -10.097656 15 -9.296875 14.71875 -8.578125 C 14.4375 -7.859375 14.019531 -7.238281 13.46875 -6.71875 C 12.914062 -6.207031 12.21875 -5.8125 11.375 -5.53125 C 10.53125 -5.25 9.554688 -5.109375 8.453125 -5.109375 L 6.53125 -5.109375 Z M 6.53125 -0.109375 "/></g></g></g><g fill="#dddddd" fill-opacity="1"><g transform="translate(112.309626, 135.856111)"><g><path d="M 16.5 -0.109375 C 16.300781 -0.0546875 15.988281 -0.00390625 15.5625 0.046875 C 15.132812 0.109375 14.710938 0.140625 14.296875 0.140625 C 13.878906 0.140625 13.507812 0.109375 13.1875 0.046875 C 12.875 -0.015625 12.609375 -0.128906 12.390625 -0.296875 C 12.179688 -0.460938 12.019531 -0.6875 11.90625 -0.96875 C 11.800781 -1.257812 11.75 -1.644531 11.75 -2.125 L 11.75 -6.359375 L 6.53125 -6.359375 L 6.53125 -0.109375 C 6.320312 -0.0546875 6.003906 -0.00390625 5.578125 0.046875 C 5.160156 0.109375 4.742188 0.140625 4.328125 0.140625 C 3.910156 0.140625 3.539062 0.109375 3.21875 0.046875 C 2.90625 -0.015625 2.640625 -0.128906 2.421875 -0.296875 C 2.203125 -0.460938 2.035156 -0.6875 1.921875 -0.96875 C 1.816406 -1.257812 1.765625 -1.644531 1.765625 -2.125 L 1.765625 -16.46875 C 1.960938 -16.507812 2.28125 -16.5625 2.71875 -16.625 C 3.15625 -16.6875 3.570312 -16.71875 3.96875 -16.71875 C 4.382812 -16.71875 4.75 -16.6875 5.0625 -16.625 C 5.382812 -16.5625 5.65625 -16.445312 5.875 -16.28125 C 6.09375 -16.125 6.253906 -15.898438 6.359375 -15.609375 C 6.472656 -15.316406 6.53125 -14.9375 6.53125 -14.46875 L 6.53125 -10.109375 L 11.75 -10.109375 L 11.75 -16.46875 C 11.945312 -16.507812 12.257812 -16.5625 12.6875 -16.625 C 13.125 -16.6875 13.546875 -16.71875 13.953125 -16.71875 C 14.367188 -16.71875 14.734375 -16.6875 15.046875 -16.625 C 15.367188 -16.5625 15.632812 -16.445312 15.84375 -16.28125 C 16.0625 -16.125 16.222656 -15.898438 16.328125 -15.609375 C 16.441406 -15.316406 16.5 -14.9375 16.5 -14.46875 Z M 16.5 -0.109375 "/></g></g></g><g fill="#dddddd" fill-opacity="1"><g transform="translate(131.663057, 135.856111)"><g><path d="M 0.953125 -8.265625 C 0.953125 -9.679688 1.171875 -10.929688 1.609375 -12.015625 C 2.054688 -13.097656 2.664062 -14.003906 3.4375 -14.734375 C 4.207031 -15.472656 5.113281 -16.035156 6.15625 -16.421875 C 7.195312 -16.804688 8.328125 -17 9.546875 -17 C 10.753906 -17 11.878906 -16.804688 12.921875 -16.421875 C 13.960938 -16.035156 14.875 -15.472656 15.65625 -14.734375 C 16.4375 -14.003906 17.046875 -13.097656 17.484375 -12.015625 C 17.929688 -10.929688 18.15625 -9.679688 18.15625 -8.265625 C 18.15625 -6.847656 17.9375 -5.59375 17.5 -4.5 C 17.070312 -3.40625 16.472656 -2.488281 15.703125 -1.75 C 14.929688 -1.019531 14.019531 -0.460938 12.96875 -0.078125 C 11.914062 0.296875 10.773438 0.484375 9.546875 0.484375 C 8.304688 0.484375 7.160156 0.289062 6.109375 -0.09375 C 5.066406 -0.488281 4.160156 -1.054688 3.390625 -1.796875 C 2.628906 -2.535156 2.03125 -3.445312 1.59375 -4.53125 C 1.164062 -5.625 0.953125 -6.867188 0.953125 -8.265625 Z M 5.84375 -8.265625 C 5.84375 -6.617188 6.175781 -5.382812 6.84375 -4.5625 C 7.519531 -3.75 8.421875 -3.34375 9.546875 -3.34375 C 10.679688 -3.34375 11.582031 -3.75 12.25 -4.5625 C 12.925781 -5.382812 13.265625 -6.617188 13.265625 -8.265625 C 13.265625 -9.898438 12.929688 -11.125 12.265625 -11.9375 C 11.609375 -12.75 10.707031 -13.15625 9.5625 -13.15625 C 8.445312 -13.15625 7.546875 -12.75 6.859375 -11.9375 C 6.179688 -11.132812 5.84375 -9.910156 5.84375 -8.265625 Z M 5.84375 -8.265625 "/></g></g></g><g fill="#dddddd" fill-opacity="1"><g transform="translate(151.859114, 135.856111)"><g><path d="M 16.6875 -0.578125 C 16.4375 -0.316406 16.070312 -0.117188 15.59375 0.015625 C 15.113281 0.148438 14.535156 0.21875 13.859375 0.21875 C 13.191406 0.21875 12.554688 0.117188 11.953125 -0.078125 C 11.359375 -0.273438 10.875 -0.753906 10.5 -1.515625 L 7.796875 -7.015625 C 7.523438 -7.578125 7.28125 -8.109375 7.0625 -8.609375 C 6.851562 -9.109375 6.617188 -9.679688 6.359375 -10.328125 L 6.203125 -10.296875 C 6.273438 -9.328125 6.3125 -8.332031 6.3125 -7.3125 C 6.320312 -6.300781 6.328125 -5.304688 6.328125 -4.328125 L 6.328125 -0.109375 C 6.128906 -0.0546875 5.828125 -0.00390625 5.421875 0.046875 C 5.015625 0.109375 4.613281 0.140625 4.21875 0.140625 C 3.8125 0.140625 3.453125 0.109375 3.140625 0.046875 C 2.835938 -0.00390625 2.585938 -0.109375 2.390625 -0.265625 C 2.191406 -0.429688 2.035156 -0.65625 1.921875 -0.9375 C 1.816406 -1.21875 1.765625 -1.585938 1.765625 -2.046875 L 1.765625 -15.640625 C 2.015625 -15.992188 2.398438 -16.257812 2.921875 -16.4375 C 3.453125 -16.625 4.019531 -16.71875 4.625 -16.71875 C 5.289062 -16.71875 5.925781 -16.613281 6.53125 -16.40625 C 7.144531 -16.195312 7.632812 -15.722656 8 -14.984375 L 10.71875 -9.484375 C 10.988281 -8.921875 11.226562 -8.390625 11.4375 -7.890625 C 11.65625 -7.398438 11.894531 -6.828125 12.15625 -6.171875 L 12.28125 -6.203125 C 12.21875 -7.179688 12.175781 -8.160156 12.15625 -9.140625 C 12.132812 -10.117188 12.125 -11.097656 12.125 -12.078125 L 12.125 -16.46875 C 12.320312 -16.53125 12.625 -16.585938 13.03125 -16.640625 C 13.4375 -16.691406 13.84375 -16.71875 14.25 -16.71875 C 15.039062 -16.71875 15.644531 -16.578125 16.0625 -16.296875 C 16.476562 -16.015625 16.6875 -15.429688 16.6875 -14.546875 Z M 16.6875 -0.578125 "/></g></g></g><g fill="#dddddd" fill-opacity="1"><g transform="translate(171.402819, 135.856111)"><g><path d="M 16.6875 -2.6875 C 16.6875 -2.125 16.585938 -1.707031 16.390625 -1.4375 C 16.191406 -1.164062 15.875 -0.90625 15.4375 -0.65625 C 15.1875 -0.507812 14.867188 -0.367188 14.484375 -0.234375 C 14.109375 -0.0976562 13.691406 0.015625 13.234375 0.109375 C 12.785156 0.210938 12.3125 0.289062 11.8125 0.34375 C 11.3125 0.40625 10.816406 0.4375 10.328125 0.4375 C 9.023438 0.4375 7.800781 0.257812 6.65625 -0.09375 C 5.519531 -0.445312 4.53125 -0.976562 3.6875 -1.6875 C 2.84375 -2.40625 2.175781 -3.300781 1.6875 -4.375 C 1.195312 -5.445312 0.953125 -6.691406 0.953125 -8.109375 C 0.953125 -9.585938 1.21875 -10.878906 1.75 -11.984375 C 2.289062 -13.085938 3 -14.003906 3.875 -14.734375 C 4.75 -15.472656 5.753906 -16.023438 6.890625 -16.390625 C 8.023438 -16.753906 9.191406 -16.9375 10.390625 -16.9375 C 12.109375 -16.9375 13.46875 -16.660156 14.46875 -16.109375 C 15.476562 -15.554688 15.984375 -14.835938 15.984375 -13.953125 C 15.984375 -13.472656 15.863281 -13.0625 15.625 -12.71875 C 15.394531 -12.375 15.125 -12.101562 14.8125 -11.90625 C 14.363281 -12.175781 13.796875 -12.441406 13.109375 -12.703125 C 12.429688 -12.972656 11.671875 -13.109375 10.828125 -13.109375 C 9.296875 -13.109375 8.082031 -12.671875 7.1875 -11.796875 C 6.289062 -10.929688 5.84375 -9.726562 5.84375 -8.1875 C 5.84375 -7.351562 5.960938 -6.628906 6.203125 -6.015625 C 6.453125 -5.410156 6.785156 -4.910156 7.203125 -4.515625 C 7.617188 -4.128906 8.097656 -3.84375 8.640625 -3.65625 C 9.191406 -3.46875 9.773438 -3.375 10.390625 -3.375 C 10.785156 -3.375 11.132812 -3.410156 11.4375 -3.484375 C 11.75 -3.554688 11.988281 -3.632812 12.15625 -3.71875 L 12.15625 -6.28125 L 9.25 -6.28125 C 9.132812 -6.476562 9.023438 -6.738281 8.921875 -7.0625 C 8.828125 -7.394531 8.78125 -7.742188 8.78125 -8.109375 C 8.78125 -8.753906 8.925781 -9.222656 9.21875 -9.515625 C 9.519531 -9.804688 9.910156 -9.953125 10.390625 -9.953125 L 14.984375 -9.953125 C 15.523438 -9.953125 15.941406 -9.800781 16.234375 -9.5 C 16.535156 -9.195312 16.6875 -8.773438 16.6875 -8.234375 Z M 16.6875 -2.6875 "/></g></g></g><g fill="#dddddd" fill-opacity="1"><g transform="translate(190.538804, 135.856111)"><g><path d="M 1 -12.671875 C 0.875 -12.867188 0.753906 -13.140625 0.640625 -13.484375 C 0.535156 -13.828125 0.484375 -14.191406 0.484375 -14.578125 C 0.484375 -15.285156 0.640625 -15.789062 0.953125 -16.09375 C 1.273438 -16.40625 1.691406 -16.5625 2.203125 -16.5625 L 14.0625 -16.5625 C 14.1875 -16.363281 14.300781 -16.085938 14.40625 -15.734375 C 14.519531 -15.390625 14.578125 -15.03125 14.578125 -14.65625 C 14.578125 -13.945312 14.414062 -13.4375 14.09375 -13.125 C 13.78125 -12.820312 13.367188 -12.671875 12.859375 -12.671875 L 9.84375 -12.671875 L 9.84375 -0.109375 C 9.644531 -0.0546875 9.332031 -0.00390625 8.90625 0.046875 C 8.476562 0.109375 8.054688 0.140625 7.640625 0.140625 C 7.222656 0.140625 6.851562 0.109375 6.53125 0.046875 C 6.21875 -0.015625 5.953125 -0.128906 5.734375 -0.296875 C 5.515625 -0.460938 5.347656 -0.6875 5.234375 -0.96875 C 5.128906 -1.257812 5.078125 -1.644531 5.078125 -2.125 L 5.078125 -12.671875 Z M 1 -12.671875 "/></g></g></g><g fill="#dddddd" fill-opacity="1"><g transform="translate(206.739191, 135.856111)"><g><path d="M 6.5 -5.328125 L 6.5 -0.109375 C 6.300781 -0.0546875 5.988281 -0.00390625 5.5625 0.046875 C 5.132812 0.109375 4.710938 0.140625 4.296875 0.140625 C 3.878906 0.140625 3.507812 0.109375 3.1875 0.046875 C 2.875 -0.015625 2.613281 -0.128906 2.40625 -0.296875 C 2.195312 -0.460938 2.035156 -0.6875 1.921875 -0.96875 C 1.816406 -1.257812 1.765625 -1.644531 1.765625 -2.125 L 1.765625 -14.921875 C 1.765625 -15.304688 1.867188 -15.601562 2.078125 -15.8125 C 2.285156 -16.019531 2.570312 -16.1875 2.9375 -16.3125 C 3.550781 -16.53125 4.265625 -16.6875 5.078125 -16.78125 C 5.898438 -16.882812 6.769531 -16.9375 7.6875 -16.9375 C 10.195312 -16.9375 12.082031 -16.410156 13.34375 -15.359375 C 14.613281 -14.304688 15.25 -12.882812 15.25 -11.09375 C 15.25 -9.96875 14.957031 -9.003906 14.375 -8.203125 C 13.800781 -7.410156 13.113281 -6.796875 12.3125 -6.359375 C 12.96875 -5.472656 13.613281 -4.640625 14.25 -3.859375 C 14.882812 -3.078125 15.378906 -2.367188 15.734375 -1.734375 C 15.554688 -1.097656 15.226562 -0.613281 14.75 -0.28125 C 14.269531 0.0507812 13.726562 0.21875 13.125 0.21875 C 12.726562 0.21875 12.382812 0.171875 12.09375 0.078125 C 11.800781 -0.00390625 11.546875 -0.128906 11.328125 -0.296875 C 11.117188 -0.460938 10.921875 -0.660156 10.734375 -0.890625 C 10.554688 -1.128906 10.382812 -1.382812 10.21875 -1.65625 L 7.9375 -5.328125 Z M 8.203125 -8.9375 C 8.898438 -8.9375 9.445312 -9.113281 9.84375 -9.46875 C 10.238281 -9.820312 10.4375 -10.34375 10.4375 -11.03125 C 10.4375 -11.726562 10.210938 -12.25 9.765625 -12.59375 C 9.328125 -12.945312 8.628906 -13.125 7.671875 -13.125 C 7.398438 -13.125 7.179688 -13.113281 7.015625 -13.09375 C 6.847656 -13.082031 6.664062 -13.054688 6.46875 -13.015625 L 6.46875 -8.9375 Z M 8.203125 -8.9375 "/></g></g></g><g fill="#dddddd" fill-opacity="1"><g transform="translate(224.380198, 135.856111)"><g><path d="M 0.953125 -8.265625 C 0.953125 -9.679688 1.171875 -10.929688 1.609375 -12.015625 C 2.054688 -13.097656 2.664062 -14.003906 3.4375 -14.734375 C 4.207031 -15.472656 5.113281 -16.035156 6.15625 -16.421875 C 7.195312 -16.804688 8.328125 -17 9.546875 -17 C 10.753906 -17 11.878906 -16.804688 12.921875 -16.421875 C 13.960938 -16.035156 14.875 -15.472656 15.65625 -14.734375 C 16.4375 -14.003906 17.046875 -13.097656 17.484375 -12.015625 C 17.929688 -10.929688 18.15625 -9.679688 18.15625 -8.265625 C 18.15625 -6.847656 17.9375 -5.59375 17.5 -4.5 C 17.070312 -3.40625 16.472656 -2.488281 15.703125 -1.75 C 14.929688 -1.019531 14.019531 -0.460938 12.96875 -0.078125 C 11.914062 0.296875 10.773438 0.484375 9.546875 0.484375 C 8.304688 0.484375 7.160156 0.289062 6.109375 -0.09375 C 5.066406 -0.488281 4.160156 -1.054688 3.390625 -1.796875 C 2.628906 -2.535156 2.03125 -3.445312 1.59375 -4.53125 C 1.164062 -5.625 0.953125 -6.867188 0.953125 -8.265625 Z M 5.84375 -8.265625 C 5.84375 -6.617188 6.175781 -5.382812 6.84375 -4.5625 C 7.519531 -3.75 8.421875 -3.34375 9.546875 -3.34375 C 10.679688 -3.34375 11.582031 -3.75 12.25 -4.5625 C 12.925781 -5.382812 13.265625 -6.617188 13.265625 -8.265625 C 13.265625 -9.898438 12.929688 -11.125 12.265625 -11.9375 C 11.609375 -12.75 10.707031 -13.15625 9.5625 -13.15625 C 8.445312 -13.15625 7.546875 -12.75 6.859375 -11.9375 C 6.179688 -11.132812 5.84375 -9.910156 5.84375 -8.265625 Z M 5.84375 -8.265625 "/></g></g></g><g fill="#dddddd" fill-opacity="1"><g transform="translate(244.576258, 135.856111)"><g><path d="M 4.21875 -12.125 L 1.5 -11.28125 C 1.226562 -11.46875 0.953125 -11.722656 0.671875 -12.046875 C 0.398438 -12.367188 0.265625 -12.820312 0.265625 -13.40625 C 0.265625 -14.488281 0.925781 -15.25 2.25 -15.6875 L 5.296875 -16.71875 L 6.3125 -16.71875 C 7.09375 -16.71875 7.707031 -16.488281 8.15625 -16.03125 C 8.613281 -15.582031 8.84375 -14.96875 8.84375 -14.1875 L 8.84375 -0.03125 C 8.632812 0.0078125 8.335938 0.0625 7.953125 0.125 C 7.566406 0.1875 7.171875 0.21875 6.765625 0.21875 C 6.367188 0.21875 6.007812 0.1875 5.6875 0.125 C 5.375 0.0703125 5.109375 -0.03125 4.890625 -0.1875 C 4.671875 -0.351562 4.503906 -0.578125 4.390625 -0.859375 C 4.273438 -1.140625 4.21875 -1.503906 4.21875 -1.953125 Z M 4.21875 -12.125 "/></g></g></g><g fill="#dddddd" fill-opacity="1"><g transform="translate(256.346068, 135.856111)"><g><path d="M 6.546875 -16.9375 C 7.585938 -16.9375 8.503906 -16.804688 9.296875 -16.546875 C 10.097656 -16.285156 10.78125 -15.925781 11.34375 -15.46875 C 11.90625 -15.019531 12.328125 -14.484375 12.609375 -13.859375 C 12.898438 -13.242188 13.046875 -12.582031 13.046875 -11.875 C 13.046875 -9.976562 11.96875 -8.164062 9.8125 -6.4375 L 6.25 -3.59375 L 12.78125 -3.59375 C 12.882812 -3.394531 12.984375 -3.140625 13.078125 -2.828125 C 13.179688 -2.515625 13.234375 -2.179688 13.234375 -1.828125 C 13.234375 -1.171875 13.085938 -0.703125 12.796875 -0.421875 C 12.515625 -0.140625 12.132812 0 11.65625 0 L 2.234375 0 C 1.828125 -0.269531 1.507812 -0.617188 1.28125 -1.046875 C 1.0625 -1.472656 0.953125 -1.976562 0.953125 -2.5625 C 0.953125 -3.175781 1.078125 -3.695312 1.328125 -4.125 C 1.585938 -4.550781 1.867188 -4.890625 2.171875 -5.140625 L 5.921875 -8.34375 C 6.398438 -8.738281 6.789062 -9.09375 7.09375 -9.40625 C 7.40625 -9.726562 7.65625 -10.015625 7.84375 -10.265625 C 8.03125 -10.523438 8.164062 -10.765625 8.25 -10.984375 C 8.332031 -11.203125 8.375 -11.410156 8.375 -11.609375 C 8.375 -12.117188 8.148438 -12.515625 7.703125 -12.796875 C 7.265625 -13.085938 6.71875 -13.234375 6.0625 -13.234375 C 5.332031 -13.234375 4.679688 -13.117188 4.109375 -12.890625 C 3.546875 -12.671875 3.070312 -12.4375 2.6875 -12.1875 C 2.382812 -12.394531 2.128906 -12.660156 1.921875 -12.984375 C 1.722656 -13.316406 1.625 -13.703125 1.625 -14.140625 C 1.625 -15.078125 2.066406 -15.773438 2.953125 -16.234375 C 3.847656 -16.703125 5.046875 -16.9375 6.546875 -16.9375 Z M 6.546875 -16.9375 "/></g></g></g><g fill="#dddddd" fill-opacity="1"><g transform="translate(271.622283, 135.856111)"><g><path d="M 6.328125 -16.9375 C 8.421875 -16.9375 10.007812 -16.503906 11.09375 -15.640625 C 12.175781 -14.785156 12.71875 -13.632812 12.71875 -12.1875 C 12.71875 -11.3125 12.488281 -10.566406 12.03125 -9.953125 C 11.570312 -9.347656 11.023438 -8.894531 10.390625 -8.59375 C 10.765625 -8.445312 11.113281 -8.265625 11.4375 -8.046875 C 11.769531 -7.828125 12.0625 -7.554688 12.3125 -7.234375 C 12.570312 -6.910156 12.769531 -6.53125 12.90625 -6.09375 C 13.050781 -5.65625 13.125 -5.144531 13.125 -4.5625 C 13.125 -3.789062 12.957031 -3.09375 12.625 -2.46875 C 12.289062 -1.851562 11.820312 -1.328125 11.21875 -0.890625 C 10.625 -0.460938 9.914062 -0.132812 9.09375 0.09375 C 8.269531 0.320312 7.367188 0.4375 6.390625 0.4375 C 4.503906 0.4375 3.082031 0.175781 2.125 -0.34375 C 1.164062 -0.875 0.6875 -1.546875 0.6875 -2.359375 C 0.6875 -2.847656 0.800781 -3.269531 1.03125 -3.625 C 1.269531 -3.976562 1.5625 -4.253906 1.90625 -4.453125 C 2.269531 -4.203125 2.753906 -3.9375 3.359375 -3.65625 C 3.960938 -3.375 4.753906 -3.234375 5.734375 -3.234375 C 6.660156 -3.234375 7.34375 -3.394531 7.78125 -3.71875 C 8.226562 -4.050781 8.453125 -4.476562 8.453125 -5 C 8.453125 -5.53125 8.273438 -5.929688 7.921875 -6.203125 C 7.566406 -6.472656 6.957031 -6.609375 6.09375 -6.609375 L 3.53125 -6.609375 C 3.40625 -6.804688 3.296875 -7.050781 3.203125 -7.34375 C 3.117188 -7.632812 3.078125 -7.976562 3.078125 -8.375 C 3.078125 -8.789062 3.113281 -9.144531 3.1875 -9.4375 C 3.269531 -9.738281 3.382812 -9.992188 3.53125 -10.203125 L 6.09375 -10.203125 C 7.394531 -10.203125 8.046875 -10.695312 8.046875 -11.6875 C 8.046875 -12.15625 7.835938 -12.535156 7.421875 -12.828125 C 7.003906 -13.117188 6.378906 -13.265625 5.546875 -13.265625 C 4.804688 -13.265625 4.15625 -13.175781 3.59375 -13 C 3.03125 -12.832031 2.566406 -12.625 2.203125 -12.375 C 1.890625 -12.59375 1.632812 -12.859375 1.4375 -13.171875 C 1.238281 -13.484375 1.140625 -13.859375 1.140625 -14.296875 C 1.140625 -15.203125 1.609375 -15.867188 2.546875 -16.296875 C 3.492188 -16.722656 4.753906 -16.9375 6.328125 -16.9375 Z M 6.328125 -16.9375 "/></g></g></g><g fill="#dddddd" fill-opacity="1"><g transform="translate(286.789783, 135.856111)"><g><path d="M 0.59375 -2.203125 C 0.59375 -2.960938 0.828125 -3.59375 1.296875 -4.09375 C 1.773438 -4.601562 2.421875 -4.859375 3.234375 -4.859375 C 4.046875 -4.859375 4.6875 -4.601562 5.15625 -4.09375 C 5.632812 -3.59375 5.875 -2.960938 5.875 -2.203125 C 5.875 -1.441406 5.632812 -0.804688 5.15625 -0.296875 C 4.6875 0.210938 4.046875 0.46875 3.234375 0.46875 C 2.421875 0.46875 1.773438 0.210938 1.296875 -0.296875 C 0.828125 -0.804688 0.59375 -1.441406 0.59375 -2.203125 Z M 0.59375 -2.203125 "/></g></g></g><g fill="#dddddd" fill-opacity="1"><g transform="translate(294.346475, 135.856111)"><g><path d="M 10.171875 -13.15625 C 8.773438 -13.15625 7.703125 -12.726562 6.953125 -11.875 C 6.210938 -11.03125 5.84375 -9.828125 5.84375 -8.265625 C 5.84375 -6.691406 6.253906 -5.476562 7.078125 -4.625 C 7.898438 -3.769531 9.007812 -3.34375 10.40625 -3.34375 C 11.15625 -3.34375 11.785156 -3.441406 12.296875 -3.640625 C 12.816406 -3.835938 13.3125 -4.066406 13.78125 -4.328125 C 14.09375 -4.066406 14.332031 -3.757812 14.5 -3.40625 C 14.675781 -3.050781 14.765625 -2.640625 14.765625 -2.171875 C 14.765625 -1.429688 14.347656 -0.800781 13.515625 -0.28125 C 12.691406 0.226562 11.441406 0.484375 9.765625 0.484375 C 8.546875 0.484375 7.398438 0.3125 6.328125 -0.03125 C 5.265625 -0.375 4.332031 -0.898438 3.53125 -1.609375 C 2.738281 -2.328125 2.109375 -3.234375 1.640625 -4.328125 C 1.179688 -5.429688 0.953125 -6.742188 0.953125 -8.265625 C 0.953125 -9.679688 1.171875 -10.925781 1.609375 -12 C 2.054688 -13.082031 2.664062 -13.992188 3.4375 -14.734375 C 4.207031 -15.472656 5.109375 -16.035156 6.140625 -16.421875 C 7.171875 -16.804688 8.28125 -17 9.46875 -17 C 11.132812 -17 12.421875 -16.722656 13.328125 -16.171875 C 14.242188 -15.628906 14.703125 -14.929688 14.703125 -14.078125 C 14.703125 -13.609375 14.582031 -13.203125 14.34375 -12.859375 C 14.113281 -12.515625 13.847656 -12.242188 13.546875 -12.046875 C 13.066406 -12.347656 12.5625 -12.609375 12.03125 -12.828125 C 11.5 -13.046875 10.878906 -13.15625 10.171875 -13.15625 Z M 10.171875 -13.15625 "/></g></g></g><g fill="#dddddd" fill-opacity="1"><g transform="translate(310.954582, 135.856111)"><g><path d="M 0.953125 -8.265625 C 0.953125 -9.679688 1.171875 -10.929688 1.609375 -12.015625 C 2.054688 -13.097656 2.664062 -14.003906 3.4375 -14.734375 C 4.207031 -15.472656 5.113281 -16.035156 6.15625 -16.421875 C 7.195312 -16.804688 8.328125 -17 9.546875 -17 C 10.753906 -17 11.878906 -16.804688 12.921875 -16.421875 C 13.960938 -16.035156 14.875 -15.472656 15.65625 -14.734375 C 16.4375 -14.003906 17.046875 -13.097656 17.484375 -12.015625 C 17.929688 -10.929688 18.15625 -9.679688 18.15625 -8.265625 C 18.15625 -6.847656 17.9375 -5.59375 17.5 -4.5 C 17.070312 -3.40625 16.472656 -2.488281 15.703125 -1.75 C 14.929688 -1.019531 14.019531 -0.460938 12.96875 -0.078125 C 11.914062 0.296875 10.773438 0.484375 9.546875 0.484375 C 8.304688 0.484375 7.160156 0.289062 6.109375 -0.09375 C 5.066406 -0.488281 4.160156 -1.054688 3.390625 -1.796875 C 2.628906 -2.535156 2.03125 -3.445312 1.59375 -4.53125 C 1.164062 -5.625 0.953125 -6.867188 0.953125 -8.265625 Z M 5.84375 -8.265625 C 5.84375 -6.617188 6.175781 -5.382812 6.84375 -4.5625 C 7.519531 -3.75 8.421875 -3.34375 9.546875 -3.34375 C 10.679688 -3.34375 11.582031 -3.75 12.25 -4.5625 C 12.925781 -5.382812 13.265625 -6.617188 13.265625 -8.265625 C 13.265625 -9.898438 12.929688 -11.125 12.265625 -11.9375 C 11.609375 -12.75 10.707031 -13.15625 9.5625 -13.15625 C 8.445312 -13.15625 7.546875 -12.75 6.859375 -11.9375 C 6.179688 -11.132812 5.84375 -9.910156 5.84375 -8.265625 Z M 5.84375 -8.265625 "/></g></g></g><g fill="#dddddd" fill-opacity="1"><g transform="translate(331.150629, 135.856111)"><g><path d="M 13.15625 -4.046875 C 12.925781 -3.847656 12.625 -3.691406 12.25 -3.578125 C 11.875 -3.460938 11.441406 -3.40625 10.953125 -3.40625 C 10.304688 -3.40625 9.769531 -3.484375 9.34375 -3.640625 C 8.914062 -3.804688 8.640625 -4.085938 8.515625 -4.484375 C 8.003906 -6.078125 7.582031 -7.367188 7.25 -8.359375 C 6.925781 -9.347656 6.675781 -10.210938 6.5 -10.953125 L 6.359375 -10.953125 C 6.304688 -9.890625 6.265625 -8.914062 6.234375 -8.03125 C 6.210938 -7.15625 6.195312 -6.300781 6.1875 -5.46875 C 6.175781 -4.632812 6.15625 -3.789062 6.125 -2.9375 C 6.101562 -2.082031 6.066406 -1.140625 6.015625 -0.109375 C 5.773438 -0.015625 5.460938 0.0625 5.078125 0.125 C 4.703125 0.1875 4.320312 0.21875 3.9375 0.21875 C 3.144531 0.21875 2.523438 0.09375 2.078125 -0.15625 C 1.628906 -0.414062 1.40625 -0.878906 1.40625 -1.546875 L 2.203125 -15.421875 C 2.347656 -15.648438 2.664062 -15.898438 3.15625 -16.171875 C 3.644531 -16.441406 4.332031 -16.578125 5.21875 -16.578125 C 6.175781 -16.578125 6.925781 -16.425781 7.46875 -16.125 C 8.019531 -15.832031 8.421875 -15.351562 8.671875 -14.6875 C 8.835938 -14.25 9.015625 -13.75 9.203125 -13.1875 C 9.390625 -12.625 9.578125 -12.039062 9.765625 -11.4375 C 9.960938 -10.84375 10.148438 -10.25 10.328125 -9.65625 C 10.515625 -9.070312 10.679688 -8.546875 10.828125 -8.078125 L 10.953125 -8.078125 C 11.390625 -9.597656 11.828125 -11.066406 12.265625 -12.484375 C 12.703125 -13.910156 13.097656 -15.101562 13.453125 -16.0625 C 13.722656 -16.207031 14.070312 -16.328125 14.5 -16.421875 C 14.925781 -16.523438 15.40625 -16.578125 15.9375 -16.578125 C 16.820312 -16.578125 17.546875 -16.445312 18.109375 -16.1875 C 18.671875 -15.925781 18.992188 -15.550781 19.078125 -15.0625 C 19.148438 -14.695312 19.226562 -14.140625 19.3125 -13.390625 C 19.394531 -12.640625 19.484375 -11.789062 19.578125 -10.84375 C 19.671875 -9.90625 19.757812 -8.910156 19.84375 -7.859375 C 19.9375 -6.804688 20.023438 -5.796875 20.109375 -4.828125 C 20.191406 -3.859375 20.257812 -2.96875 20.3125 -2.15625 C 20.363281 -1.351562 20.398438 -0.734375 20.421875 -0.296875 C 20.109375 -0.117188 19.785156 0.0078125 19.453125 0.09375 C 19.117188 0.175781 18.6875 0.21875 18.15625 0.21875 C 17.46875 0.21875 16.890625 0.101562 16.421875 -0.125 C 15.953125 -0.363281 15.695312 -0.828125 15.65625 -1.515625 C 15.550781 -3.492188 15.484375 -5.269531 15.453125 -6.84375 C 15.429688 -8.425781 15.390625 -9.753906 15.328125 -10.828125 L 15.203125 -10.828125 C 15.015625 -10.117188 14.75 -9.226562 14.40625 -8.15625 C 14.0625 -7.082031 13.644531 -5.710938 13.15625 -4.046875 Z M 13.15625 -4.046875 "/></g></g></g><g fill="#dddddd" fill-opacity="1"><g transform="translate(96.023453, 154.116298)"><g><path d="M 0.96875 -8.75 L 2.421875 -8.75 L 2.421875 0 L 0.96875 0 Z M 2.546875 -4.625 L 5.78125 -8.75 L 7.5 -8.75 L 4.21875 -4.640625 L 7.515625 0 L 5.78125 0 Z M 2.546875 -4.625 "/></g></g></g><g fill="#dddddd" fill-opacity="1"><g transform="translate(104.839872, 154.116298)"><g><path d="M 3.71875 0.125 C 3.007812 0.125 2.398438 -0.0195312 1.890625 -0.3125 C 1.390625 -0.601562 1.007812 -0.992188 0.75 -1.484375 C 0.488281 -1.984375 0.359375 -2.539062 0.359375 -3.15625 C 0.359375 -3.738281 0.476562 -4.269531 0.71875 -4.75 C 0.957031 -5.226562 1.304688 -5.609375 1.765625 -5.890625 C 2.234375 -6.171875 2.78125 -6.3125 3.40625 -6.3125 C 3.945312 -6.3125 4.421875 -6.195312 4.828125 -5.96875 C 5.234375 -5.738281 5.539062 -5.421875 5.75 -5.015625 C 5.96875 -4.617188 6.078125 -4.164062 6.078125 -3.65625 C 6.078125 -3.382812 6.046875 -3.128906 5.984375 -2.890625 L 1.8125 -2.890625 C 1.882812 -2.242188 2.101562 -1.773438 2.46875 -1.484375 C 2.84375 -1.191406 3.304688 -1.046875 3.859375 -1.046875 C 4.535156 -1.046875 5.148438 -1.203125 5.703125 -1.515625 L 5.796875 -0.34375 C 5.160156 -0.03125 4.46875 0.125 3.71875 0.125 Z M 4.65625 -3.84375 C 4.65625 -4.207031 4.550781 -4.515625 4.34375 -4.765625 C 4.132812 -5.015625 3.816406 -5.140625 3.390625 -5.140625 C 2.578125 -5.140625 2.066406 -4.707031 1.859375 -3.84375 Z M 1.875 -7.875 L 3.5 -9.265625 L 5.125 -7.875 L 5.125 -6.96875 L 3.5 -8 L 1.875 -6.96875 Z M 1.875 -7.875 "/></g></g></g><g fill="#dddddd" fill-opacity="1"><g transform="translate(112.518397, 154.116298)"><g><path d="M 3.84375 -6.3125 C 4.644531 -6.3125 5.242188 -6.054688 5.640625 -5.546875 C 6.046875 -5.035156 6.25 -4.335938 6.25 -3.453125 L 6.25 0 L 4.859375 0 L 4.859375 -3.359375 C 4.859375 -3.972656 4.75 -4.421875 4.53125 -4.703125 C 4.320312 -4.992188 3.972656 -5.140625 3.484375 -5.140625 C 2.898438 -5.140625 2.453125 -4.9375 2.140625 -4.53125 L 2.140625 0 L 0.734375 0 L 0.734375 -6.203125 L 1.96875 -6.203125 L 2.03125 -5.6875 C 2.5625 -6.101562 3.164062 -6.3125 3.84375 -6.3125 Z M 3.84375 -6.3125 "/></g></g></g><g fill="#dddddd" fill-opacity="1"><g transform="translate(120.709597, 154.116298)"><g><path d="M 3.8125 -6.3125 C 4.59375 -6.3125 5.179688 -6.054688 5.578125 -5.546875 C 5.972656 -5.035156 6.171875 -4.335938 6.171875 -3.453125 L 6.171875 0 L 4.78125 0 L 4.78125 -3.328125 C 4.78125 -3.953125 4.675781 -4.410156 4.46875 -4.703125 C 4.257812 -4.992188 3.925781 -5.140625 3.46875 -5.140625 C 2.914062 -5.140625 2.46875 -4.925781 2.125 -4.5 L 2.125 0 L 0.71875 0 L 0.71875 -9.375 L 2.125 -9.375 L 2.125 -5.71875 C 2.375 -5.914062 2.628906 -6.0625 2.890625 -6.15625 C 3.160156 -6.257812 3.46875 -6.3125 3.8125 -6.3125 Z M 3.8125 -6.3125 "/></g></g></g><g fill="#dddddd" fill-opacity="1"><g transform="translate(128.813276, 154.116298)"><g/></g></g><g fill="#dddddd" fill-opacity="1"><g transform="translate(132.87806, 154.116298)"><g><path d="M 2.796875 0.125 C 2.253906 0.125 1.84375 -0.0234375 1.5625 -0.328125 C 1.289062 -0.640625 1.15625 -1.015625 1.15625 -1.453125 L 1.15625 -5.078125 L 0.21875 -5.078125 L 0.34375 -6.203125 L 1.15625 -6.203125 L 1.15625 -7.625 L 2.546875 -7.78125 L 2.546875 -6.203125 L 4.015625 -6.203125 L 4.015625 -5.078125 L 2.546875 -5.078125 L 2.546875 -2.09375 C 2.546875 -1.726562 2.566406 -1.476562 2.609375 -1.34375 C 2.648438 -1.207031 2.738281 -1.117188 2.875 -1.078125 C 3.019531 -1.035156 3.269531 -1.015625 3.625 -1.015625 L 4 -1.015625 L 3.875 0.125 Z M 2.796875 0.125 "/></g></g></g><g fill="#dddddd" fill-opacity="1"><g transform="translate(138.393346, 154.116298)"><g><path d="M 3.8125 -6.3125 C 4.59375 -6.3125 5.179688 -6.054688 5.578125 -5.546875 C 5.972656 -5.035156 6.171875 -4.335938 6.171875 -3.453125 L 6.171875 0 L 4.78125 0 L 4.78125 -3.328125 C 4.78125 -3.953125 4.675781 -4.410156 4.46875 -4.703125 C 4.257812 -4.992188 3.925781 -5.140625 3.46875 -5.140625 C 2.914062 -5.140625 2.46875 -4.925781 2.125 -4.5 L 2.125 0 L 0.71875 0 L 0.71875 -9.375 L 2.125 -9.375 L 2.125 -5.71875 C 2.375 -5.914062 2.628906 -6.0625 2.890625 -6.15625 C 3.160156 -6.257812 3.46875 -6.3125 3.8125 -6.3125 Z M 3.8125 -6.3125 "/></g></g></g><g fill="#dddddd" fill-opacity="1"><g transform="translate(146.497025, 154.116298)"><g><path d="M 3.515625 0.125 C 2.867188 0.125 2.304688 -0.015625 1.828125 -0.296875 C 1.359375 -0.585938 0.992188 -0.976562 0.734375 -1.46875 C 0.484375 -1.96875 0.359375 -2.507812 0.359375 -3.09375 C 0.359375 -3.6875 0.484375 -4.226562 0.734375 -4.71875 C 0.992188 -5.21875 1.359375 -5.609375 1.828125 -5.890625 C 2.304688 -6.179688 2.867188 -6.328125 3.515625 -6.328125 C 4.160156 -6.328125 4.71875 -6.179688 5.1875 -5.890625 C 5.664062 -5.609375 6.03125 -5.21875 6.28125 -4.71875 C 6.53125 -4.226562 6.65625 -3.6875 6.65625 -3.09375 C 6.65625 -2.507812 6.53125 -1.96875 6.28125 -1.46875 C 6.03125 -0.976562 5.664062 -0.585938 5.1875 -0.296875 C 4.71875 -0.015625 4.160156 0.125 3.515625 0.125 Z M 3.515625 -1.046875 C 4.054688 -1.046875 4.476562 -1.226562 4.78125 -1.59375 C 5.082031 -1.96875 5.234375 -2.46875 5.234375 -3.09375 C 5.234375 -3.71875 5.082031 -4.21875 4.78125 -4.59375 C 4.476562 -4.96875 4.054688 -5.15625 3.515625 -5.15625 C 2.972656 -5.15625 2.550781 -4.96875 2.25 -4.59375 C 1.945312 -4.21875 1.796875 -3.71875 1.796875 -3.09375 C 1.796875 -2.46875 1.945312 -1.96875 2.25 -1.59375 C 2.550781 -1.226562 2.972656 -1.046875 3.515625 -1.046875 Z M 1.890625 -7.875 L 3.515625 -9.265625 L 5.140625 -7.875 L 5.140625 -6.96875 L 3.515625 -8 L 1.890625 -6.96875 Z M 1.890625 -7.875 "/></g></g></g><g fill="#dddddd" fill-opacity="1"><g transform="translate(154.788255, 154.116298)"><g><path d="M 3.84375 -6.3125 C 4.644531 -6.3125 5.242188 -6.054688 5.640625 -5.546875 C 6.046875 -5.035156 6.25 -4.335938 6.25 -3.453125 L 6.25 0 L 4.859375 0 L 4.859375 -3.359375 C 4.859375 -3.972656 4.75 -4.421875 4.53125 -4.703125 C 4.320312 -4.992188 3.972656 -5.140625 3.484375 -5.140625 C 2.898438 -5.140625 2.453125 -4.9375 2.140625 -4.53125 L 2.140625 0 L 0.734375 0 L 0.734375 -6.203125 L 1.96875 -6.203125 L 2.03125 -5.6875 C 2.5625 -6.101562 3.164062 -6.3125 3.84375 -6.3125 Z M 3.84375 -6.3125 "/></g></g></g><g fill="#dddddd" fill-opacity="1"><g transform="translate(162.979453, 154.116298)"><g><path d="M 3.21875 3.140625 C 2.34375 3.140625 1.640625 2.976562 1.109375 2.65625 C 0.578125 2.34375 0.3125 1.90625 0.3125 1.34375 C 0.3125 0.71875 0.65625 0.226562 1.34375 -0.125 C 0.96875 -0.34375 0.78125 -0.625 0.78125 -0.96875 C 0.78125 -1.363281 1 -1.65625 1.4375 -1.84375 C 1.113281 -2.0625 0.863281 -2.34375 0.6875 -2.6875 C 0.519531 -3.039062 0.4375 -3.4375 0.4375 -3.875 C 0.4375 -4.332031 0.535156 -4.742188 0.734375 -5.109375 C 0.929688 -5.484375 1.21875 -5.78125 1.59375 -6 C 1.976562 -6.21875 2.4375 -6.328125 2.96875 -6.328125 C 3.53125 -6.328125 4.015625 -6.1875 4.421875 -5.90625 C 4.578125 -5.988281 4.78125 -6.0625 5.03125 -6.125 C 5.28125 -6.1875 5.546875 -6.21875 5.828125 -6.21875 L 6.109375 -6.21875 L 6 -5.328125 L 5.53125 -5.328125 C 5.375 -5.328125 5.21875 -5.3125 5.0625 -5.28125 C 5.351562 -4.882812 5.5 -4.414062 5.5 -3.875 C 5.5 -3.414062 5.398438 -3 5.203125 -2.625 C 5.003906 -2.25 4.710938 -1.953125 4.328125 -1.734375 C 3.941406 -1.515625 3.488281 -1.40625 2.96875 -1.40625 C 2.726562 -1.40625 2.488281 -1.4375 2.25 -1.5 C 2.113281 -1.445312 2.046875 -1.363281 2.046875 -1.25 C 2.046875 -1.144531 2.109375 -1.0625 2.234375 -1 C 2.367188 -0.9375 2.570312 -0.882812 2.84375 -0.84375 L 4.125 -0.65625 C 5.539062 -0.457031 6.25 0.132812 6.25 1.125 C 6.25 1.757812 5.976562 2.253906 5.4375 2.609375 C 4.90625 2.960938 4.164062 3.140625 3.21875 3.140625 Z M 2.96875 -2.46875 C 3.363281 -2.46875 3.671875 -2.59375 3.890625 -2.84375 C 4.109375 -3.09375 4.21875 -3.4375 4.21875 -3.875 C 4.21875 -4.3125 4.109375 -4.65625 3.890625 -4.90625 C 3.671875 -5.15625 3.363281 -5.28125 2.96875 -5.28125 C 2.5625 -5.28125 2.25 -5.148438 2.03125 -4.890625 C 1.820312 -4.640625 1.71875 -4.300781 1.71875 -3.875 C 1.71875 -3.4375 1.820312 -3.09375 2.03125 -2.84375 C 2.25 -2.59375 2.5625 -2.46875 2.96875 -2.46875 Z M 3.28125 2.03125 C 4.40625 2.03125 4.96875 1.757812 4.96875 1.21875 C 4.96875 0.988281 4.875 0.8125 4.6875 0.6875 C 4.5 0.570312 4.195312 0.476562 3.78125 0.40625 L 2.28125 0.171875 C 2.050781 0.265625 1.867188 0.390625 1.734375 0.546875 C 1.597656 0.703125 1.53125 0.882812 1.53125 1.09375 C 1.53125 1.40625 1.679688 1.640625 1.984375 1.796875 C 2.296875 1.953125 2.726562 2.03125 3.28125 2.03125 Z M 3.28125 2.03125 "/></g></g></g><g fill="#dddddd" fill-opacity="1"><g transform="translate(170.482919, 154.116298)"><g/></g></g><g fill="#dddddd" fill-opacity="1"><g transform="translate(174.5477, 154.116298)"><g><path d="M 2.796875 0.125 C 2.253906 0.125 1.84375 -0.0234375 1.5625 -0.328125 C 1.289062 -0.640625 1.15625 -1.015625 1.15625 -1.453125 L 1.15625 -5.078125 L 0.21875 -5.078125 L 0.34375 -6.203125 L 1.15625 -6.203125 L 1.15625 -7.625 L 2.546875 -7.78125 L 2.546875 -6.203125 L 4.015625 -6.203125 L 4.015625 -5.078125 L 2.546875 -5.078125 L 2.546875 -2.09375 C 2.546875 -1.726562 2.566406 -1.476562 2.609375 -1.34375 C 2.648438 -1.207031 2.738281 -1.117188 2.875 -1.078125 C 3.019531 -1.035156 3.269531 -1.015625 3.625 -1.015625 L 4 -1.015625 L 3.875 0.125 Z M 2.796875 0.125 "/></g></g></g><g fill="#dddddd" fill-opacity="1"><g transform="translate(180.062983, 154.116298)"><g><path d="M 0.734375 -8.75 L 2.140625 -8.75 L 2.140625 -7.3125 L 0.734375 -7.3125 Z M 0.734375 -6.203125 L 2.140625 -6.203125 L 2.140625 0 L 0.734375 0 Z M 0.734375 -6.203125 "/></g></g></g><g fill="#dddddd" fill-opacity="1"><g transform="translate(184.190291, 154.116298)"><g><path d="M 3.84375 -6.3125 C 4.644531 -6.3125 5.242188 -6.054688 5.640625 -5.546875 C 6.046875 -5.035156 6.25 -4.335938 6.25 -3.453125 L 6.25 0 L 4.859375 0 L 4.859375 -3.359375 C 4.859375 -3.972656 4.75 -4.421875 4.53125 -4.703125 C 4.320312 -4.992188 3.972656 -5.140625 3.484375 -5.140625 C 2.898438 -5.140625 2.453125 -4.9375 2.140625 -4.53125 L 2.140625 0 L 0.734375 0 L 0.734375 -6.203125 L 1.96875 -6.203125 L 2.03125 -5.6875 C 2.5625 -6.101562 3.164062 -6.3125 3.84375 -6.3125 Z M 3.84375 -6.3125 "/></g></g></g><g fill="#dddddd" fill-opacity="1"><g transform="translate(192.381489, 154.116298)"><g/></g></g><g fill="#dddddd" fill-opacity="1"><g transform="translate(196.44627, 154.116298)"><g><path d="M 3.953125 -6.3125 C 4.523438 -6.3125 5.019531 -6.171875 5.4375 -5.890625 C 5.851562 -5.609375 6.171875 -5.222656 6.390625 -4.734375 C 6.609375 -4.242188 6.71875 -3.695312 6.71875 -3.09375 C 6.71875 -2.5 6.609375 -1.953125 6.390625 -1.453125 C 6.179688 -0.960938 5.867188 -0.578125 5.453125 -0.296875 C 5.035156 -0.015625 4.535156 0.125 3.953125 0.125 C 3.546875 0.125 3.195312 0.078125 2.90625 -0.015625 C 2.625 -0.117188 2.367188 -0.28125 2.140625 -0.5 L 2.140625 3.03125 L 0.734375 3.03125 L 0.734375 -6.203125 L 1.84375 -6.203125 L 2 -5.53125 C 2.269531 -5.78125 2.5625 -5.972656 2.875 -6.109375 C 3.1875 -6.242188 3.546875 -6.3125 3.953125 -6.3125 Z M 3.71875 -1.046875 C 4.207031 -1.046875 4.585938 -1.226562 4.859375 -1.59375 C 5.140625 -1.96875 5.28125 -2.46875 5.28125 -3.09375 C 5.28125 -3.71875 5.140625 -4.210938 4.859375 -4.578125 C 4.585938 -4.953125 4.207031 -5.140625 3.71875 -5.140625 C 3.1875 -5.140625 2.773438 -4.957031 2.484375 -4.59375 C 2.203125 -4.238281 2.0625 -3.738281 2.0625 -3.09375 C 2.0625 -2.445312 2.203125 -1.941406 2.484375 -1.578125 C 2.773438 -1.222656 3.1875 -1.046875 3.71875 -1.046875 Z M 3.71875 -1.046875 "/></g></g></g><g fill="#dddddd" fill-opacity="1"><g transform="translate(204.787517, 154.116298)"><g><path d="M 3.8125 -6.3125 C 4.59375 -6.3125 5.179688 -6.054688 5.578125 -5.546875 C 5.972656 -5.035156 6.171875 -4.335938 6.171875 -3.453125 L 6.171875 0 L 4.78125 0 L 4.78125 -3.328125 C 4.78125 -3.953125 4.675781 -4.410156 4.46875 -4.703125 C 4.257812 -4.992188 3.925781 -5.140625 3.46875 -5.140625 C 2.914062 -5.140625 2.46875 -4.925781 2.125 -4.5 L 2.125 0 L 0.71875 0 L 0.71875 -9.375 L 2.125 -9.375 L 2.125 -5.71875 C 2.375 -5.914062 2.628906 -6.0625 2.890625 -6.15625 C 3.160156 -6.257812 3.46875 -6.3125 3.8125 -6.3125 Z M 3.8125 -6.3125 "/></g></g></g><g fill="#dddddd" fill-opacity="1"><g transform="translate(212.891193, 154.116298)"><g><path d="M 3.515625 0.125 C 2.867188 0.125 2.304688 -0.015625 1.828125 -0.296875 C 1.359375 -0.585938 0.992188 -0.976562 0.734375 -1.46875 C 0.484375 -1.96875 0.359375 -2.507812 0.359375 -3.09375 C 0.359375 -3.6875 0.484375 -4.226562 0.734375 -4.71875 C 0.992188 -5.21875 1.359375 -5.609375 1.828125 -5.890625 C 2.304688 -6.179688 2.867188 -6.328125 3.515625 -6.328125 C 4.160156 -6.328125 4.71875 -6.179688 5.1875 -5.890625 C 5.664062 -5.609375 6.03125 -5.21875 6.28125 -4.71875 C 6.53125 -4.226562 6.65625 -3.6875 6.65625 -3.09375 C 6.65625 -2.507812 6.53125 -1.96875 6.28125 -1.46875 C 6.03125 -0.976562 5.664062 -0.585938 5.1875 -0.296875 C 4.71875 -0.015625 4.160156 0.125 3.515625 0.125 Z M 3.515625 -1.046875 C 4.054688 -1.046875 4.476562 -1.226562 4.78125 -1.59375 C 5.082031 -1.96875 5.234375 -2.46875 5.234375 -3.09375 C 5.234375 -3.71875 5.082031 -4.21875 4.78125 -4.59375 C 4.476562 -4.96875 4.054688 -5.15625 3.515625 -5.15625 C 2.972656 -5.15625 2.550781 -4.96875 2.25 -4.59375 C 1.945312 -4.21875 1.796875 -3.71875 1.796875 -3.09375 C 1.796875 -2.46875 1.945312 -1.96875 2.25 -1.59375 C 2.550781 -1.226562 2.972656 -1.046875 3.515625 -1.046875 Z M 2.296875 -8.09375 L 2.296875 -9.453125 L 4.71875 -8.0625 L 4.71875 -7.15625 Z M 2.296875 -8.09375 "/></g></g></g><g fill="#dddddd" fill-opacity="1"><g transform="translate(221.18243, 154.116298)"><g><path d="M 3.84375 -6.3125 C 4.644531 -6.3125 5.242188 -6.054688 5.640625 -5.546875 C 6.046875 -5.035156 6.25 -4.335938 6.25 -3.453125 L 6.25 0 L 4.859375 0 L 4.859375 -3.359375 C 4.859375 -3.972656 4.75 -4.421875 4.53125 -4.703125 C 4.320312 -4.992188 3.972656 -5.140625 3.484375 -5.140625 C 2.898438 -5.140625 2.453125 -4.9375 2.140625 -4.53125 L 2.140625 0 L 0.734375 0 L 0.734375 -6.203125 L 1.96875 -6.203125 L 2.03125 -5.6875 C 2.5625 -6.101562 3.164062 -6.3125 3.84375 -6.3125 Z M 3.84375 -6.3125 "/></g></g></g><g fill="#dddddd" fill-opacity="1"><g transform="translate(229.373634, 154.116298)"><g><path d="M 3.21875 3.140625 C 2.34375 3.140625 1.640625 2.976562 1.109375 2.65625 C 0.578125 2.34375 0.3125 1.90625 0.3125 1.34375 C 0.3125 0.71875 0.65625 0.226562 1.34375 -0.125 C 0.96875 -0.34375 0.78125 -0.625 0.78125 -0.96875 C 0.78125 -1.363281 1 -1.65625 1.4375 -1.84375 C 1.113281 -2.0625 0.863281 -2.34375 0.6875 -2.6875 C 0.519531 -3.039062 0.4375 -3.4375 0.4375 -3.875 C 0.4375 -4.332031 0.535156 -4.742188 0.734375 -5.109375 C 0.929688 -5.484375 1.21875 -5.78125 1.59375 -6 C 1.976562 -6.21875 2.4375 -6.328125 2.96875 -6.328125 C 3.53125 -6.328125 4.015625 -6.1875 4.421875 -5.90625 C 4.578125 -5.988281 4.78125 -6.0625 5.03125 -6.125 C 5.28125 -6.1875 5.546875 -6.21875 5.828125 -6.21875 L 6.109375 -6.21875 L 6 -5.328125 L 5.53125 -5.328125 C 5.375 -5.328125 5.21875 -5.3125 5.0625 -5.28125 C 5.351562 -4.882812 5.5 -4.414062 5.5 -3.875 C 5.5 -3.414062 5.398438 -3 5.203125 -2.625 C 5.003906 -2.25 4.710938 -1.953125 4.328125 -1.734375 C 3.941406 -1.515625 3.488281 -1.40625 2.96875 -1.40625 C 2.726562 -1.40625 2.488281 -1.4375 2.25 -1.5 C 2.113281 -1.445312 2.046875 -1.363281 2.046875 -1.25 C 2.046875 -1.144531 2.109375 -1.0625 2.234375 -1 C 2.367188 -0.9375 2.570312 -0.882812 2.84375 -0.84375 L 4.125 -0.65625 C 5.539062 -0.457031 6.25 0.132812 6.25 1.125 C 6.25 1.757812 5.976562 2.253906 5.4375 2.609375 C 4.90625 2.960938 4.164062 3.140625 3.21875 3.140625 Z M 2.96875 -2.46875 C 3.363281 -2.46875 3.671875 -2.59375 3.890625 -2.84375 C 4.109375 -3.09375 4.21875 -3.4375 4.21875 -3.875 C 4.21875 -4.3125 4.109375 -4.65625 3.890625 -4.90625 C 3.671875 -5.15625 3.363281 -5.28125 2.96875 -5.28125 C 2.5625 -5.28125 2.25 -5.148438 2.03125 -4.890625 C 1.820312 -4.640625 1.71875 -4.300781 1.71875 -3.875 C 1.71875 -3.4375 1.820312 -3.09375 2.03125 -2.84375 C 2.25 -2.59375 2.5625 -2.46875 2.96875 -2.46875 Z M 3.28125 2.03125 C 4.40625 2.03125 4.96875 1.757812 4.96875 1.21875 C 4.96875 0.988281 4.875 0.8125 4.6875 0.6875 C 4.5 0.570312 4.195312 0.476562 3.78125 0.40625 L 2.28125 0.171875 C 2.050781 0.265625 1.867188 0.390625 1.734375 0.546875 C 1.597656 0.703125 1.53125 0.882812 1.53125 1.09375 C 1.53125 1.40625 1.679688 1.640625 1.984375 1.796875 C 2.296875 1.953125 2.726562 2.03125 3.28125 2.03125 Z M 3.28125 2.03125 "/></g></g></g><g fill="#dddddd" fill-opacity="1"><g transform="translate(236.877107, 154.116298)"><g/></g></g><g fill="#dddddd" fill-opacity="1"><g transform="translate(240.941894, 154.116298)"><g><path d="M 2.796875 0.125 C 2.253906 0.125 1.84375 -0.0234375 1.5625 -0.328125 C 1.289062 -0.640625 1.15625 -1.015625 1.15625 -1.453125 L 1.15625 -5.078125 L 0.21875 -5.078125 L 0.34375 -6.203125 L 1.15625 -6.203125 L 1.15625 -7.625 L 2.546875 -7.78125 L 2.546875 -6.203125 L 4.015625 -6.203125 L 4.015625 -5.078125 L 2.546875 -5.078125 L 2.546875 -2.09375 C 2.546875 -1.726562 2.566406 -1.476562 2.609375 -1.34375 C 2.648438 -1.207031 2.738281 -1.117188 2.875 -1.078125 C 3.019531 -1.035156 3.269531 -1.015625 3.625 -1.015625 L 4 -1.015625 L 3.875 0.125 Z M 2.796875 0.125 "/></g></g></g><g fill="#dddddd" fill-opacity="1"><g transform="translate(246.457183, 154.116298)"><g><path d="M 0.734375 -6.203125 L 2 -6.203125 L 2.078125 -5.40625 C 2.296875 -5.6875 2.550781 -5.910156 2.84375 -6.078125 C 3.132812 -6.242188 3.441406 -6.328125 3.765625 -6.328125 C 3.847656 -6.328125 3.9375 -6.316406 4.03125 -6.296875 L 3.921875 -4.875 C 3.785156 -4.914062 3.628906 -4.9375 3.453125 -4.9375 C 3.171875 -4.9375 2.910156 -4.867188 2.671875 -4.734375 C 2.429688 -4.609375 2.257812 -4.457031 2.15625 -4.28125 L 2.15625 0 L 0.734375 0 Z M 0.734375 -6.203125 "/></g></g></g><g fill="#dddddd" fill-opacity="1"><g transform="translate(251.772407, 154.116298)"><g><path d="M 3.515625 0.125 C 2.867188 0.125 2.304688 -0.015625 1.828125 -0.296875 C 1.359375 -0.585938 0.992188 -0.976562 0.734375 -1.46875 C 0.484375 -1.96875 0.359375 -2.507812 0.359375 -3.09375 C 0.359375 -3.6875 0.484375 -4.226562 0.734375 -4.71875 C 0.992188 -5.21875 1.359375 -5.609375 1.828125 -5.890625 C 2.304688 -6.179688 2.867188 -6.328125 3.515625 -6.328125 C 4.160156 -6.328125 4.71875 -6.179688 5.1875 -5.890625 C 5.664062 -5.609375 6.03125 -5.21875 6.28125 -4.71875 C 6.53125 -4.226562 6.65625 -3.6875 6.65625 -3.09375 C 6.65625 -2.507812 6.53125 -1.96875 6.28125 -1.46875 C 6.03125 -0.976562 5.664062 -0.585938 5.1875 -0.296875 C 4.71875 -0.015625 4.160156 0.125 3.515625 0.125 Z M 3.515625 -1.046875 C 4.054688 -1.046875 4.476562 -1.226562 4.78125 -1.59375 C 5.082031 -1.96875 5.234375 -2.46875 5.234375 -3.09375 C 5.234375 -3.71875 5.082031 -4.21875 4.78125 -4.59375 C 4.476562 -4.96875 4.054688 -5.15625 3.515625 -5.15625 C 2.972656 -5.15625 2.550781 -4.96875 2.25 -4.59375 C 1.945312 -4.21875 1.796875 -3.71875 1.796875 -3.09375 C 1.796875 -2.46875 1.945312 -1.96875 2.25 -1.59375 C 2.550781 -1.226562 2.972656 -1.046875 3.515625 -1.046875 Z M 2.875 1.015625 L 4.15625 1.015625 L 4.15625 2.1875 L 2.875 2.1875 Z M 2.875 1.015625 "/></g></g></g><g fill="#dddddd" fill-opacity="1"><g transform="translate(260.063644, 154.116298)"><g/></g></g><g fill="#dddddd" fill-opacity="1"><g transform="translate(264.128431, 154.116298)"><g><path d="M 2.5 0.125 C 1.738281 0.125 1.035156 -0.0351562 0.390625 -0.359375 L 0.53125 -1.59375 C 1.164062 -1.175781 1.804688 -0.96875 2.453125 -0.96875 C 2.796875 -0.96875 3.054688 -1.023438 3.234375 -1.140625 C 3.410156 -1.253906 3.5 -1.425781 3.5 -1.65625 C 3.5 -1.90625 3.40625 -2.09375 3.21875 -2.21875 C 3.039062 -2.34375 2.742188 -2.476562 2.328125 -2.625 C 1.710938 -2.832031 1.25 -3.066406 0.9375 -3.328125 C 0.625 -3.597656 0.46875 -3.988281 0.46875 -4.5 C 0.46875 -5.03125 0.671875 -5.46875 1.078125 -5.8125 C 1.484375 -6.15625 2.050781 -6.328125 2.78125 -6.328125 C 3.46875 -6.328125 4.082031 -6.175781 4.625 -5.875 L 4.484375 -4.65625 C 4.210938 -4.863281 3.941406 -5.019531 3.671875 -5.125 C 3.410156 -5.226562 3.125 -5.28125 2.8125 -5.28125 C 2.5 -5.28125 2.257812 -5.21875 2.09375 -5.09375 C 1.925781 -4.976562 1.84375 -4.8125 1.84375 -4.59375 C 1.84375 -4.425781 1.890625 -4.285156 1.984375 -4.171875 C 2.078125 -4.066406 2.207031 -3.972656 2.375 -3.890625 C 2.550781 -3.816406 2.820312 -3.71875 3.1875 -3.59375 C 3.75 -3.382812 4.175781 -3.144531 4.46875 -2.875 C 4.757812 -2.601562 4.90625 -2.21875 4.90625 -1.71875 C 4.90625 -1.164062 4.707031 -0.71875 4.3125 -0.375 C 3.914062 -0.0390625 3.3125 0.125 2.5 0.125 Z M 2.5 0.125 "/></g></g></g><g fill="#dddddd" fill-opacity="1"><g transform="translate(270.631563, 154.116298)"><g><path d="M 3.515625 0.125 C 2.867188 0.125 2.304688 -0.015625 1.828125 -0.296875 C 1.359375 -0.585938 0.992188 -0.976562 0.734375 -1.46875 C 0.484375 -1.96875 0.359375 -2.507812 0.359375 -3.09375 C 0.359375 -3.6875 0.484375 -4.226562 0.734375 -4.71875 C 0.992188 -5.21875 1.359375 -5.609375 1.828125 -5.890625 C 2.304688 -6.179688 2.867188 -6.328125 3.515625 -6.328125 C 4.160156 -6.328125 4.71875 -6.179688 5.1875 -5.890625 C 5.664062 -5.609375 6.03125 -5.21875 6.28125 -4.71875 C 6.53125 -4.226562 6.65625 -3.6875 6.65625 -3.09375 C 6.65625 -2.507812 6.53125 -1.96875 6.28125 -1.46875 C 6.03125 -0.976562 5.664062 -0.585938 5.1875 -0.296875 C 4.71875 -0.015625 4.160156 0.125 3.515625 0.125 Z M 3.515625 -1.046875 C 4.054688 -1.046875 4.476562 -1.226562 4.78125 -1.59375 C 5.082031 -1.96875 5.234375 -2.46875 5.234375 -3.09375 C 5.234375 -3.71875 5.082031 -4.21875 4.78125 -4.59375 C 4.476562 -4.96875 4.054688 -5.15625 3.515625 -5.15625 C 2.972656 -5.15625 2.550781 -4.96875 2.25 -4.59375 C 1.945312 -4.21875 1.796875 -3.71875 1.796875 -3.09375 C 1.796875 -2.46875 1.945312 -1.96875 2.25 -1.59375 C 2.550781 -1.226562 2.972656 -1.046875 3.515625 -1.046875 Z M 5.296875 -10.21875 L 6.640625 -10.21875 L 5.390625 -8.65625 L 4.46875 -8.65625 Z M 1.890625 -7.671875 L 3.515625 -8.8125 L 5.140625 -7.671875 L 5.140625 -6.796875 L 3.515625 -7.671875 L 1.890625 -6.796875 Z M 1.890625 -7.671875 "/></g></g></g><g fill="#dddddd" fill-opacity="1"><g transform="translate(278.9228, 154.116298)"><g/></g></g><g fill="#dddddd" fill-opacity="1"><g transform="translate(282.987588, 154.116298)"><g><path d="M 1.84375 -6.6875 C 1.457031 -6.40625 1.066406 -6.21875 0.671875 -6.125 L 0.515625 -7.390625 C 0.816406 -7.460938 1.140625 -7.632812 1.484375 -7.90625 C 1.828125 -8.175781 2.070312 -8.457031 2.21875 -8.75 L 3.28125 -8.75 L 3.28125 0 L 1.84375 0 Z M 1.84375 -6.6875 "/></g></g></g><g fill="#dddddd" fill-opacity="1"><g transform="translate(288.652926, 154.116298)"><g/></g></g><g fill="#dddddd" fill-opacity="1"><g transform="translate(292.717714, 154.116298)"><g><path d="M 7.671875 -8.75 L 4.5625 0 L 3.140625 0 L 0.015625 -8.75 L 1.5 -8.75 L 3.84375 -2.078125 L 6.203125 -8.75 Z M 7.671875 -8.75 "/></g></g></g><g fill="#dddddd" fill-opacity="1"><g transform="translate(301.671688, 154.116298)"><g><path d="M 0.734375 -8.75 L 2.140625 -8.75 L 2.140625 -7.3125 L 0.734375 -7.3125 Z M 0.734375 -6.203125 L 2.140625 -6.203125 L 2.140625 0 L 0.734375 0 Z M 0.734375 -6.203125 "/></g></g></g><g fill="#dddddd" fill-opacity="1"><g transform="translate(305.799003, 154.116298)"><g><path d="M 3.71875 0.125 C 3.007812 0.125 2.398438 -0.0195312 1.890625 -0.3125 C 1.390625 -0.601562 1.007812 -0.992188 0.75 -1.484375 C 0.488281 -1.984375 0.359375 -2.539062 0.359375 -3.15625 C 0.359375 -3.738281 0.476562 -4.269531 0.71875 -4.75 C 0.957031 -5.226562 1.304688 -5.609375 1.765625 -5.890625 C 2.234375 -6.171875 2.78125 -6.3125 3.40625 -6.3125 C 3.945312 -6.3125 4.421875 -6.195312 4.828125 -5.96875 C 5.234375 -5.738281 5.539062 -5.421875 5.75 -5.015625 C 5.96875 -4.617188 6.078125 -4.164062 6.078125 -3.65625 C 6.078125 -3.382812 6.046875 -3.128906 5.984375 -2.890625 L 1.8125 -2.890625 C 1.882812 -2.242188 2.101562 -1.773438 2.46875 -1.484375 C 2.84375 -1.191406 3.304688 -1.046875 3.859375 -1.046875 C 4.535156 -1.046875 5.148438 -1.203125 5.703125 -1.515625 L 5.796875 -0.34375 C 5.160156 -0.03125 4.46875 0.125 3.71875 0.125 Z M 4.65625 -3.84375 C 4.65625 -4.207031 4.550781 -4.515625 4.34375 -4.765625 C 4.132812 -5.015625 3.816406 -5.140625 3.390625 -5.140625 C 2.578125 -5.140625 2.066406 -4.707031 1.859375 -3.84375 Z M 1.875 -7.875 L 3.5 -9.265625 L 5.125 -7.875 L 5.125 -6.96875 L 3.5 -8 L 1.875 -6.96875 Z M 2.578125 1.015625 L 3.859375 1.015625 L 3.859375 2.1875 L 2.578125 2.1875 Z M 2.578125 1.015625 "/></g></g></g><g fill="#dddddd" fill-opacity="1"><g transform="translate(313.477532, 154.116298)"><g><path d="M 2.796875 0.125 C 2.253906 0.125 1.84375 -0.0234375 1.5625 -0.328125 C 1.289062 -0.640625 1.15625 -1.015625 1.15625 -1.453125 L 1.15625 -5.078125 L 0.21875 -5.078125 L 0.34375 -6.203125 L 1.15625 -6.203125 L 1.15625 -7.625 L 2.546875 -7.78125 L 2.546875 -6.203125 L 4.015625 -6.203125 L 4.015625 -5.078125 L 2.546875 -5.078125 L 2.546875 -2.09375 C 2.546875 -1.726562 2.566406 -1.476562 2.609375 -1.34375 C 2.648438 -1.207031 2.738281 -1.117188 2.875 -1.078125 C 3.019531 -1.035156 3.269531 -1.015625 3.625 -1.015625 L 4 -1.015625 L 3.875 0.125 Z M 2.796875 0.125 "/></g></g></g><g fill="#dddddd" fill-opacity="1"><g transform="translate(318.992808, 154.116298)"><g/></g></g><g fill="#dddddd" fill-opacity="1"><g transform="translate(323.057596, 154.116298)"><g><path d="M 0.96875 -8.75 L 2.453125 -8.75 L 6.390625 -2.78125 L 6.390625 -8.75 L 7.84375 -8.75 L 7.84375 0 L 6.65625 0 L 2.421875 -6.34375 L 2.421875 0 L 0.96875 0 Z M 0.96875 -8.75 "/></g></g></g><g fill="#dddddd" fill-opacity="1"><g transform="translate(333.136951, 154.116298)"><g><path d="M 2.109375 0.125 C 1.578125 0.125 1.140625 -0.0390625 0.796875 -0.375 C 0.453125 -0.71875 0.28125 -1.164062 0.28125 -1.71875 C 0.28125 -2.257812 0.46875 -2.691406 0.84375 -3.015625 C 1.226562 -3.335938 1.6875 -3.566406 2.21875 -3.703125 C 2.757812 -3.835938 3.300781 -3.914062 3.84375 -3.9375 C 3.832031 -4.375 3.734375 -4.675781 3.546875 -4.84375 C 3.367188 -5.007812 3.066406 -5.09375 2.640625 -5.09375 C 2.367188 -5.09375 2.101562 -5.050781 1.84375 -4.96875 C 1.582031 -4.894531 1.289062 -4.769531 0.96875 -4.59375 L 0.8125 -5.734375 C 1.507812 -6.117188 2.25 -6.3125 3.03125 -6.3125 C 3.78125 -6.3125 4.335938 -6.101562 4.703125 -5.6875 C 5.066406 -5.28125 5.25 -4.601562 5.25 -3.65625 L 5.25 -2.109375 C 5.25 -1.785156 5.265625 -1.550781 5.296875 -1.40625 C 5.328125 -1.257812 5.378906 -1.15625 5.453125 -1.09375 C 5.535156 -1.039062 5.664062 -1.015625 5.84375 -1.015625 L 6.03125 -1.015625 L 5.859375 0.125 L 5.46875 0.125 C 5.070312 0.125 4.765625 0.0546875 4.546875 -0.078125 C 4.328125 -0.210938 4.148438 -0.40625 4.015625 -0.65625 C 3.796875 -0.414062 3.519531 -0.222656 3.1875 -0.078125 C 2.851562 0.0546875 2.492188 0.125 2.109375 0.125 Z M 2.609375 -0.96875 C 2.816406 -0.96875 3.035156 -1.019531 3.265625 -1.125 C 3.492188 -1.226562 3.6875 -1.367188 3.84375 -1.546875 L 3.84375 -2.984375 C 3.207031 -2.960938 2.691406 -2.847656 2.296875 -2.640625 C 1.910156 -2.441406 1.71875 -2.15625 1.71875 -1.78125 C 1.71875 -1.238281 2.015625 -0.96875 2.609375 -0.96875 Z M 2.609375 -0.96875 "/></g></g></g><g fill="#dddddd" fill-opacity="1"><g transform="translate(340.527868, 154.116298)"><g><path d="M 7.796875 -6.3125 C 8.617188 -6.3125 9.226562 -6.070312 9.625 -5.59375 C 10.019531 -5.113281 10.21875 -4.425781 10.21875 -3.53125 L 10.21875 0 L 8.828125 0 L 8.828125 -3.453125 C 8.828125 -4.035156 8.726562 -4.460938 8.53125 -4.734375 C 8.332031 -5.003906 8.007812 -5.140625 7.5625 -5.140625 C 7.070312 -5.140625 6.71875 -4.988281 6.5 -4.6875 C 6.28125 -4.382812 6.171875 -3.988281 6.171875 -3.5 L 6.171875 0 L 4.78125 0 L 4.78125 -3.359375 C 4.78125 -3.992188 4.675781 -4.445312 4.46875 -4.71875 C 4.257812 -5 3.9375 -5.140625 3.5 -5.140625 C 2.90625 -5.140625 2.453125 -4.929688 2.140625 -4.515625 L 2.140625 0 L 0.734375 0 L 0.734375 -6.203125 L 1.90625 -6.203125 L 1.984375 -5.65625 C 2.535156 -6.09375 3.15625 -6.3125 3.84375 -6.3125 C 4.695312 -6.3125 5.320312 -5.984375 5.71875 -5.328125 C 5.925781 -5.640625 6.207031 -5.878906 6.5625 -6.046875 C 6.914062 -6.222656 7.328125 -6.3125 7.796875 -6.3125 Z M 7.796875 -6.3125 "/></g></g></g></svg>