<svg xmlns="http://www.w3.org/2000/svg" xmlns:xlink="http://www.w3.org/1999/xlink" width="300" zoomAndPan="magnify" viewBox="0 0 224.87999 41.25" height="55" preserveAspectRatio="xMidYMid meet" version="1.0"><defs><g/><clipPath id="12214ca608"><path d="M 1.949219 0 L 222.8125 0 L 222.8125 40.511719 L 1.949219 40.511719 Z M 1.949219 0 " clip-rule="nonzero"/></clipPath><clipPath id="cc961cff8d"><path d="M 205 5 L 222.8125 5 L 222.8125 20 L 205 20 Z M 205 5 " clip-rule="nonzero"/></clipPath></defs><g clip-path="url(#12214ca608)"><path fill="#ffffff" d="M 1.949219 0 L 222.929688 0 L 222.929688 40.511719 L 1.949219 40.511719 Z M 1.949219 0 " fill-opacity="1" fill-rule="nonzero"/><path fill="#ffffff" d="M 1.949219 0 L 222.929688 0 L 222.929688 40.511719 L 1.949219 40.511719 Z M 1.949219 0 " fill-opacity="1" fill-rule="nonzero"/></g><g fill="#1266dd" fill-opacity="1"><g transform="translate(1.136015, 19.811299)"><g><path d="M 6.859375 -7.625 C 7.515625 -7.625 8.015625 -7.773438 8.359375 -8.078125 C 8.710938 -8.390625 8.890625 -8.859375 8.890625 -9.484375 C 8.890625 -10.078125 8.707031 -10.53125 8.34375 -10.84375 C 7.976562 -11.164062 7.441406 -11.328125 6.734375 -11.328125 C 6.484375 -11.328125 6.273438 -11.320312 6.109375 -11.3125 C 5.941406 -11.3125 5.773438 -11.296875 5.609375 -11.265625 L 5.609375 -7.625 Z M 5.625 -0.09375 C 5.457031 -0.0507812 5.1875 -0.00390625 4.8125 0.046875 C 4.445312 0.0976562 4.085938 0.125 3.734375 0.125 C 3.367188 0.125 3.050781 0.09375 2.78125 0.03125 C 2.507812 -0.0195312 2.28125 -0.113281 2.09375 -0.25 C 1.90625 -0.394531 1.765625 -0.59375 1.671875 -0.84375 C 1.578125 -1.09375 1.53125 -1.421875 1.53125 -1.828125 L 1.53125 -12.890625 C 1.53125 -13.210938 1.617188 -13.460938 1.796875 -13.640625 C 1.972656 -13.828125 2.21875 -13.972656 2.53125 -14.078125 C 3.0625 -14.265625 3.664062 -14.398438 4.34375 -14.484375 C 5.03125 -14.578125 5.71875 -14.625 6.40625 -14.625 C 8.5625 -14.625 10.210938 -14.160156 11.359375 -13.234375 C 12.503906 -12.316406 13.078125 -11.066406 13.078125 -9.484375 C 13.078125 -8.710938 12.953125 -8.019531 12.703125 -7.40625 C 12.460938 -6.789062 12.101562 -6.257812 11.625 -5.8125 C 11.144531 -5.363281 10.539062 -5.015625 9.8125 -4.765625 C 9.09375 -4.523438 8.253906 -4.40625 7.296875 -4.40625 L 5.625 -4.40625 Z M 5.625 -0.09375 "/></g></g></g><g fill="#1266dd" fill-opacity="1"><g transform="translate(15.709774, 19.811299)"><g><path d="M 14.25 -0.09375 C 14.070312 -0.0507812 13.800781 -0.00390625 13.4375 0.046875 C 13.070312 0.0976562 12.707031 0.125 12.34375 0.125 C 11.988281 0.125 11.671875 0.09375 11.390625 0.03125 C 11.117188 -0.0195312 10.890625 -0.113281 10.703125 -0.25 C 10.515625 -0.394531 10.375 -0.59375 10.28125 -0.84375 C 10.1875 -1.09375 10.140625 -1.421875 10.140625 -1.828125 L 10.140625 -5.484375 L 5.625 -5.484375 L 5.625 -0.09375 C 5.457031 -0.0507812 5.1875 -0.00390625 4.8125 0.046875 C 4.445312 0.0976562 4.085938 0.125 3.734375 0.125 C 3.367188 0.125 3.050781 0.09375 2.78125 0.03125 C 2.507812 -0.0195312 2.28125 -0.113281 2.09375 -0.25 C 1.90625 -0.394531 1.765625 -0.59375 1.671875 -0.84375 C 1.578125 -1.09375 1.53125 -1.421875 1.53125 -1.828125 L 1.53125 -14.21875 C 1.695312 -14.25 1.96875 -14.289062 2.34375 -14.34375 C 2.71875 -14.40625 3.078125 -14.4375 3.421875 -14.4375 C 3.785156 -14.4375 4.101562 -14.40625 4.375 -14.34375 C 4.644531 -14.289062 4.875 -14.191406 5.0625 -14.046875 C 5.25 -13.910156 5.390625 -13.71875 5.484375 -13.46875 C 5.578125 -13.21875 5.625 -12.890625 5.625 -12.484375 L 5.625 -8.734375 L 10.140625 -8.734375 L 10.140625 -14.21875 C 10.304688 -14.25 10.578125 -14.289062 10.953125 -14.34375 C 11.328125 -14.40625 11.691406 -14.4375 12.046875 -14.4375 C 12.398438 -14.4375 12.710938 -14.40625 12.984375 -14.34375 C 13.265625 -14.289062 13.5 -14.191406 13.6875 -14.046875 C 13.875 -13.910156 14.015625 -13.71875 14.109375 -13.46875 C 14.203125 -13.21875 14.25 -12.890625 14.25 -12.484375 Z M 14.25 -0.09375 "/></g></g></g><g fill="#1266dd" fill-opacity="1"><g transform="translate(32.419105, 19.811299)"><g><path d="M 0.828125 -7.140625 C 0.828125 -8.359375 1.015625 -9.4375 1.390625 -10.375 C 1.773438 -11.3125 2.300781 -12.097656 2.96875 -12.734375 C 3.632812 -13.367188 4.414062 -13.847656 5.3125 -14.171875 C 6.21875 -14.503906 7.191406 -14.671875 8.234375 -14.671875 C 9.285156 -14.671875 10.257812 -14.503906 11.15625 -14.171875 C 12.0625 -13.847656 12.847656 -13.367188 13.515625 -12.734375 C 14.191406 -12.097656 14.71875 -11.3125 15.09375 -10.375 C 15.476562 -9.4375 15.671875 -8.359375 15.671875 -7.140625 C 15.671875 -5.910156 15.484375 -4.820312 15.109375 -3.875 C 14.734375 -2.9375 14.210938 -2.148438 13.546875 -1.515625 C 12.890625 -0.878906 12.101562 -0.394531 11.1875 -0.0625 C 10.28125 0.257812 9.296875 0.421875 8.234375 0.421875 C 7.171875 0.421875 6.1875 0.253906 5.28125 -0.078125 C 4.375 -0.421875 3.59375 -0.910156 2.9375 -1.546875 C 2.28125 -2.191406 1.765625 -2.984375 1.390625 -3.921875 C 1.015625 -4.859375 0.828125 -5.929688 0.828125 -7.140625 Z M 5.046875 -7.140625 C 5.046875 -5.710938 5.332031 -4.644531 5.90625 -3.9375 C 6.488281 -3.238281 7.265625 -2.890625 8.234375 -2.890625 C 9.222656 -2.890625 10.003906 -3.238281 10.578125 -3.9375 C 11.160156 -4.644531 11.453125 -5.710938 11.453125 -7.140625 C 11.453125 -8.546875 11.164062 -9.597656 10.59375 -10.296875 C 10.019531 -11.003906 9.242188 -11.359375 8.265625 -11.359375 C 7.296875 -11.359375 6.515625 -11.007812 5.921875 -10.3125 C 5.335938 -9.613281 5.046875 -8.554688 5.046875 -7.140625 Z M 5.046875 -7.140625 "/></g></g></g><g fill="#1266dd" fill-opacity="1"><g transform="translate(49.855939, 19.811299)"><g><path d="M 14.40625 -0.5 C 14.1875 -0.28125 13.867188 -0.113281 13.453125 0 C 13.046875 0.125 12.550781 0.1875 11.96875 0.1875 C 11.382812 0.1875 10.832031 0.101562 10.3125 -0.0625 C 9.800781 -0.238281 9.382812 -0.65625 9.0625 -1.3125 L 6.734375 -6.0625 C 6.503906 -6.539062 6.289062 -6.992188 6.09375 -7.421875 C 5.90625 -7.859375 5.703125 -8.359375 5.484375 -8.921875 L 5.34375 -8.890625 C 5.40625 -8.046875 5.441406 -7.1875 5.453125 -6.3125 C 5.460938 -5.4375 5.46875 -4.578125 5.46875 -3.734375 L 5.46875 -0.09375 C 5.289062 -0.0507812 5.023438 -0.00390625 4.671875 0.046875 C 4.328125 0.0976562 3.984375 0.125 3.640625 0.125 C 3.296875 0.125 2.988281 0.0976562 2.71875 0.046875 C 2.457031 -0.00390625 2.238281 -0.0976562 2.0625 -0.234375 C 1.894531 -0.378906 1.765625 -0.570312 1.671875 -0.8125 C 1.578125 -1.050781 1.53125 -1.367188 1.53125 -1.765625 L 1.53125 -13.5 C 1.75 -13.8125 2.082031 -14.046875 2.53125 -14.203125 C 2.988281 -14.359375 3.472656 -14.4375 3.984375 -14.4375 C 4.566406 -14.4375 5.117188 -14.34375 5.640625 -14.15625 C 6.171875 -13.976562 6.59375 -13.570312 6.90625 -12.9375 L 9.25 -8.1875 C 9.476562 -7.707031 9.6875 -7.25 9.875 -6.8125 C 10.0625 -6.382812 10.265625 -5.890625 10.484375 -5.328125 L 10.609375 -5.34375 C 10.546875 -6.195312 10.503906 -7.046875 10.484375 -7.890625 C 10.472656 -8.734375 10.46875 -9.578125 10.46875 -10.421875 L 10.46875 -14.21875 C 10.632812 -14.269531 10.894531 -14.316406 11.25 -14.359375 C 11.601562 -14.410156 11.953125 -14.4375 12.296875 -14.4375 C 12.984375 -14.4375 13.503906 -14.3125 13.859375 -14.0625 C 14.222656 -13.820312 14.40625 -13.320312 14.40625 -12.5625 Z M 14.40625 -0.5 "/></g></g></g><g fill="#1266dd" fill-opacity="1"><g transform="translate(66.729548, 19.811299)"><g><path d="M 14.40625 -2.328125 C 14.40625 -1.835938 14.316406 -1.472656 14.140625 -1.234375 C 13.972656 -1.003906 13.703125 -0.78125 13.328125 -0.5625 C 13.109375 -0.4375 12.832031 -0.316406 12.5 -0.203125 C 12.175781 -0.0859375 11.816406 0.0078125 11.421875 0.09375 C 11.035156 0.1875 10.625 0.253906 10.1875 0.296875 C 9.757812 0.347656 9.335938 0.375 8.921875 0.375 C 7.796875 0.375 6.738281 0.222656 5.75 -0.078125 C 4.757812 -0.390625 3.898438 -0.851562 3.171875 -1.46875 C 2.453125 -2.082031 1.878906 -2.847656 1.453125 -3.765625 C 1.035156 -4.691406 0.828125 -5.769531 0.828125 -7 C 0.828125 -8.28125 1.054688 -9.394531 1.515625 -10.34375 C 1.972656 -11.300781 2.582031 -12.097656 3.34375 -12.734375 C 4.101562 -13.367188 4.972656 -13.84375 5.953125 -14.15625 C 6.929688 -14.46875 7.9375 -14.625 8.96875 -14.625 C 10.445312 -14.625 11.617188 -14.382812 12.484375 -13.90625 C 13.359375 -13.425781 13.796875 -12.804688 13.796875 -12.046875 C 13.796875 -11.628906 13.691406 -11.269531 13.484375 -10.96875 C 13.285156 -10.675781 13.054688 -10.445312 12.796875 -10.28125 C 12.398438 -10.507812 11.90625 -10.738281 11.3125 -10.96875 C 10.726562 -11.195312 10.070312 -11.3125 9.34375 -11.3125 C 8.03125 -11.3125 6.984375 -10.9375 6.203125 -10.1875 C 5.429688 -9.4375 5.046875 -8.394531 5.046875 -7.0625 C 5.046875 -6.34375 5.148438 -5.71875 5.359375 -5.1875 C 5.566406 -4.664062 5.851562 -4.238281 6.21875 -3.90625 C 6.582031 -3.570312 7 -3.320312 7.46875 -3.15625 C 7.9375 -2.988281 8.4375 -2.90625 8.96875 -2.90625 C 9.3125 -2.90625 9.613281 -2.9375 9.875 -3 C 10.144531 -3.0625 10.347656 -3.132812 10.484375 -3.21875 L 10.484375 -5.421875 L 7.984375 -5.421875 C 7.890625 -5.585938 7.796875 -5.8125 7.703125 -6.09375 C 7.617188 -6.382812 7.578125 -6.6875 7.578125 -7 C 7.578125 -7.5625 7.707031 -7.96875 7.96875 -8.21875 C 8.226562 -8.46875 8.5625 -8.59375 8.96875 -8.59375 L 12.9375 -8.59375 C 13.40625 -8.59375 13.765625 -8.460938 14.015625 -8.203125 C 14.273438 -7.941406 14.40625 -7.578125 14.40625 -7.109375 Z M 14.40625 -2.328125 "/></g></g></g><g fill="#1266dd" fill-opacity="1"><g transform="translate(83.25114, 19.811299)"><g><path d="M 0.875 -10.9375 C 0.757812 -11.101562 0.65625 -11.335938 0.5625 -11.640625 C 0.46875 -11.941406 0.421875 -12.253906 0.421875 -12.578125 C 0.421875 -13.191406 0.554688 -13.628906 0.828125 -13.890625 C 1.109375 -14.160156 1.46875 -14.296875 1.90625 -14.296875 L 12.140625 -14.296875 C 12.242188 -14.117188 12.34375 -13.878906 12.4375 -13.578125 C 12.53125 -13.285156 12.578125 -12.976562 12.578125 -12.65625 C 12.578125 -12.039062 12.441406 -11.597656 12.171875 -11.328125 C 11.898438 -11.066406 11.539062 -10.9375 11.09375 -10.9375 L 8.5 -10.9375 L 8.5 -0.09375 C 8.320312 -0.0507812 8.050781 -0.00390625 7.6875 0.046875 C 7.320312 0.0976562 6.957031 0.125 6.59375 0.125 C 6.238281 0.125 5.921875 0.09375 5.640625 0.03125 C 5.367188 -0.0195312 5.140625 -0.113281 4.953125 -0.25 C 4.765625 -0.394531 4.625 -0.59375 4.53125 -0.84375 C 4.4375 -1.09375 4.390625 -1.421875 4.390625 -1.828125 L 4.390625 -10.9375 Z M 0.875 -10.9375 "/></g></g></g><g fill="#1266dd" fill-opacity="1"><g transform="translate(97.238201, 19.811299)"><g><path d="M 5.609375 -4.59375 L 5.609375 -0.09375 C 5.429688 -0.0507812 5.160156 -0.00390625 4.796875 0.046875 C 4.429688 0.0976562 4.066406 0.125 3.703125 0.125 C 3.347656 0.125 3.03125 0.09375 2.75 0.03125 C 2.476562 -0.0195312 2.253906 -0.113281 2.078125 -0.25 C 1.898438 -0.394531 1.765625 -0.59375 1.671875 -0.84375 C 1.578125 -1.09375 1.53125 -1.421875 1.53125 -1.828125 L 1.53125 -12.890625 C 1.53125 -13.210938 1.617188 -13.460938 1.796875 -13.640625 C 1.972656 -13.828125 2.21875 -13.972656 2.53125 -14.078125 C 3.0625 -14.265625 3.675781 -14.398438 4.375 -14.484375 C 5.082031 -14.578125 5.835938 -14.625 6.640625 -14.625 C 8.796875 -14.625 10.421875 -14.171875 11.515625 -13.265625 C 12.617188 -12.359375 13.171875 -11.128906 13.171875 -9.578125 C 13.171875 -8.609375 12.914062 -7.78125 12.40625 -7.09375 C 11.90625 -6.40625 11.3125 -5.867188 10.625 -5.484375 C 11.1875 -4.722656 11.742188 -4.003906 12.296875 -3.328125 C 12.847656 -2.660156 13.28125 -2.050781 13.59375 -1.5 C 13.4375 -0.957031 13.148438 -0.539062 12.734375 -0.25 C 12.316406 0.0390625 11.847656 0.1875 11.328125 0.1875 C 10.984375 0.1875 10.6875 0.144531 10.4375 0.0625 C 10.1875 -0.0078125 9.96875 -0.113281 9.78125 -0.25 C 9.59375 -0.394531 9.421875 -0.566406 9.265625 -0.765625 C 9.109375 -0.972656 8.960938 -1.195312 8.828125 -1.4375 L 6.859375 -4.59375 Z M 7.09375 -7.71875 C 7.6875 -7.71875 8.15625 -7.867188 8.5 -8.171875 C 8.84375 -8.484375 9.015625 -8.9375 9.015625 -9.53125 C 9.015625 -10.125 8.820312 -10.570312 8.4375 -10.875 C 8.050781 -11.175781 7.445312 -11.328125 6.625 -11.328125 C 6.382812 -11.328125 6.191406 -11.316406 6.046875 -11.296875 C 5.910156 -11.285156 5.753906 -11.265625 5.578125 -11.234375 L 5.578125 -7.71875 Z M 7.09375 -7.71875 "/></g></g></g><g fill="#1266dd" fill-opacity="1"><g transform="translate(112.469061, 19.811299)"><g><path d="M 0.828125 -7.140625 C 0.828125 -8.359375 1.015625 -9.4375 1.390625 -10.375 C 1.773438 -11.3125 2.300781 -12.097656 2.96875 -12.734375 C 3.632812 -13.367188 4.414062 -13.847656 5.3125 -14.171875 C 6.21875 -14.503906 7.191406 -14.671875 8.234375 -14.671875 C 9.285156 -14.671875 10.257812 -14.503906 11.15625 -14.171875 C 12.0625 -13.847656 12.847656 -13.367188 13.515625 -12.734375 C 14.191406 -12.097656 14.71875 -11.3125 15.09375 -10.375 C 15.476562 -9.4375 15.671875 -8.359375 15.671875 -7.140625 C 15.671875 -5.910156 15.484375 -4.820312 15.109375 -3.875 C 14.734375 -2.9375 14.210938 -2.148438 13.546875 -1.515625 C 12.890625 -0.878906 12.101562 -0.394531 11.1875 -0.0625 C 10.28125 0.257812 9.296875 0.421875 8.234375 0.421875 C 7.171875 0.421875 6.1875 0.253906 5.28125 -0.078125 C 4.375 -0.421875 3.59375 -0.910156 2.9375 -1.546875 C 2.28125 -2.191406 1.765625 -2.984375 1.390625 -3.921875 C 1.015625 -4.859375 0.828125 -5.929688 0.828125 -7.140625 Z M 5.046875 -7.140625 C 5.046875 -5.710938 5.332031 -4.644531 5.90625 -3.9375 C 6.488281 -3.238281 7.265625 -2.890625 8.234375 -2.890625 C 9.222656 -2.890625 10.003906 -3.238281 10.578125 -3.9375 C 11.160156 -4.644531 11.453125 -5.710938 11.453125 -7.140625 C 11.453125 -8.546875 11.164062 -9.597656 10.59375 -10.296875 C 10.019531 -11.003906 9.242188 -11.359375 8.265625 -11.359375 C 7.296875 -11.359375 6.515625 -11.007812 5.921875 -10.3125 C 5.335938 -9.613281 5.046875 -8.554688 5.046875 -7.140625 Z M 5.046875 -7.140625 "/></g></g></g><g fill="#e41b23" fill-opacity="1"><g transform="translate(129.915658, 19.811299)"><g><path d="M 3.640625 -10.46875 L 1.296875 -9.734375 C 1.054688 -9.890625 0.816406 -10.109375 0.578125 -10.390625 C 0.347656 -10.671875 0.234375 -11.0625 0.234375 -11.5625 C 0.234375 -12.507812 0.804688 -13.171875 1.953125 -13.546875 L 4.578125 -14.4375 L 5.4375 -14.4375 C 6.113281 -14.4375 6.644531 -14.238281 7.03125 -13.84375 C 7.425781 -13.457031 7.625 -12.925781 7.625 -12.25 L 7.625 -0.03125 C 7.457031 0.0078125 7.203125 0.0546875 6.859375 0.109375 C 6.523438 0.160156 6.1875 0.1875 5.84375 0.1875 C 5.5 0.1875 5.1875 0.160156 4.90625 0.109375 C 4.632812 0.0664062 4.40625 -0.0195312 4.21875 -0.15625 C 4.03125 -0.300781 3.882812 -0.492188 3.78125 -0.734375 C 3.6875 -0.984375 3.640625 -1.300781 3.640625 -1.6875 Z M 3.640625 -10.46875 "/></g></g></g><g fill="#e41b23" fill-opacity="1"><g transform="translate(140.077451, 19.811299)"><g><path d="M 5.65625 -14.625 C 6.550781 -14.625 7.34375 -14.507812 8.03125 -14.28125 C 8.71875 -14.050781 9.300781 -13.738281 9.78125 -13.34375 C 10.269531 -12.957031 10.640625 -12.5 10.890625 -11.96875 C 11.140625 -11.4375 11.265625 -10.863281 11.265625 -10.25 C 11.265625 -8.613281 10.332031 -7.050781 8.46875 -5.5625 L 5.390625 -3.09375 L 11.03125 -3.09375 C 11.125 -2.925781 11.210938 -2.707031 11.296875 -2.4375 C 11.378906 -2.175781 11.421875 -1.890625 11.421875 -1.578125 C 11.421875 -1.015625 11.296875 -0.609375 11.046875 -0.359375 C 10.796875 -0.117188 10.46875 0 10.0625 0 L 1.921875 0 C 1.578125 -0.238281 1.304688 -0.539062 1.109375 -0.90625 C 0.921875 -1.269531 0.828125 -1.703125 0.828125 -2.203125 C 0.828125 -2.734375 0.9375 -3.179688 1.15625 -3.546875 C 1.375 -3.921875 1.613281 -4.21875 1.875 -4.4375 L 5.109375 -7.203125 C 5.515625 -7.546875 5.851562 -7.851562 6.125 -8.125 C 6.394531 -8.40625 6.609375 -8.65625 6.765625 -8.875 C 6.929688 -9.09375 7.050781 -9.296875 7.125 -9.484375 C 7.195312 -9.671875 7.234375 -9.847656 7.234375 -10.015625 C 7.234375 -10.453125 7.039062 -10.796875 6.65625 -11.046875 C 6.269531 -11.296875 5.796875 -11.421875 5.234375 -11.421875 C 4.609375 -11.421875 4.046875 -11.320312 3.546875 -11.125 C 3.054688 -10.9375 2.648438 -10.734375 2.328125 -10.515625 C 2.054688 -10.703125 1.832031 -10.9375 1.65625 -11.21875 C 1.488281 -11.5 1.40625 -11.828125 1.40625 -12.203125 C 1.40625 -13.015625 1.785156 -13.617188 2.546875 -14.015625 C 3.316406 -14.421875 4.351562 -14.625 5.65625 -14.625 Z M 5.65625 -14.625 "/></g></g></g><g fill="#e41b23" fill-opacity="1"><g transform="translate(153.266598, 19.811299)"><g><path d="M 5.46875 -14.625 C 7.269531 -14.625 8.640625 -14.25 9.578125 -13.5 C 10.515625 -12.757812 10.984375 -11.765625 10.984375 -10.515625 C 10.984375 -9.765625 10.78125 -9.125 10.375 -8.59375 C 9.976562 -8.070312 9.507812 -7.679688 8.96875 -7.421875 C 9.289062 -7.296875 9.59375 -7.140625 9.875 -6.953125 C 10.15625 -6.765625 10.40625 -6.523438 10.625 -6.234375 C 10.84375 -5.953125 11.015625 -5.625 11.140625 -5.25 C 11.265625 -4.875 11.328125 -4.4375 11.328125 -3.9375 C 11.328125 -3.269531 11.179688 -2.671875 10.890625 -2.140625 C 10.609375 -1.609375 10.207031 -1.15625 9.6875 -0.78125 C 9.175781 -0.40625 8.5625 -0.117188 7.84375 0.078125 C 7.132812 0.273438 6.359375 0.375 5.515625 0.375 C 3.890625 0.375 2.660156 0.148438 1.828125 -0.296875 C 1.003906 -0.753906 0.59375 -1.335938 0.59375 -2.046875 C 0.59375 -2.460938 0.691406 -2.820312 0.890625 -3.125 C 1.097656 -3.4375 1.347656 -3.675781 1.640625 -3.84375 C 1.953125 -3.625 2.367188 -3.394531 2.890625 -3.15625 C 3.421875 -2.914062 4.109375 -2.796875 4.953125 -2.796875 C 5.753906 -2.796875 6.34375 -2.9375 6.71875 -3.21875 C 7.101562 -3.5 7.296875 -3.863281 7.296875 -4.3125 C 7.296875 -4.769531 7.144531 -5.113281 6.84375 -5.34375 C 6.539062 -5.582031 6.007812 -5.703125 5.25 -5.703125 L 3.046875 -5.703125 C 2.941406 -5.878906 2.847656 -6.09375 2.765625 -6.34375 C 2.691406 -6.59375 2.65625 -6.890625 2.65625 -7.234375 C 2.65625 -7.585938 2.6875 -7.894531 2.75 -8.15625 C 2.820312 -8.414062 2.921875 -8.628906 3.046875 -8.796875 L 5.25 -8.796875 C 6.382812 -8.796875 6.953125 -9.226562 6.953125 -10.09375 C 6.953125 -10.5 6.769531 -10.828125 6.40625 -11.078125 C 6.039062 -11.328125 5.5 -11.453125 4.78125 -11.453125 C 4.144531 -11.453125 3.582031 -11.375 3.09375 -11.21875 C 2.613281 -11.070312 2.21875 -10.890625 1.90625 -10.671875 C 1.632812 -10.859375 1.410156 -11.085938 1.234375 -11.359375 C 1.066406 -11.640625 0.984375 -11.96875 0.984375 -12.34375 C 0.984375 -13.125 1.390625 -13.695312 2.203125 -14.0625 C 3.015625 -14.4375 4.101562 -14.625 5.46875 -14.625 Z M 5.46875 -14.625 "/></g></g></g><g fill="#a6a6a6" fill-opacity="1"><g transform="translate(166.366196, 19.811299)"><g><path d="M 0.515625 -1.90625 C 0.515625 -2.5625 0.71875 -3.109375 1.125 -3.546875 C 1.53125 -3.984375 2.085938 -4.203125 2.796875 -4.203125 C 3.492188 -4.203125 4.046875 -3.984375 4.453125 -3.546875 C 4.859375 -3.109375 5.0625 -2.5625 5.0625 -1.90625 C 5.0625 -1.25 4.859375 -0.695312 4.453125 -0.25 C 4.046875 0.1875 3.492188 0.40625 2.796875 0.40625 C 2.085938 0.40625 1.53125 0.1875 1.125 -0.25 C 0.71875 -0.695312 0.515625 -1.25 0.515625 -1.90625 Z M 0.515625 -1.90625 "/></g></g></g><g fill="#a6a6a6" fill-opacity="1"><g transform="translate(172.890474, 19.811299)"><g><path d="M 8.78125 -11.359375 C 7.570312 -11.359375 6.644531 -10.988281 6 -10.25 C 5.363281 -9.519531 5.046875 -8.484375 5.046875 -7.140625 C 5.046875 -5.773438 5.398438 -4.722656 6.109375 -3.984375 C 6.828125 -3.253906 7.785156 -2.890625 8.984375 -2.890625 C 9.628906 -2.890625 10.171875 -2.972656 10.609375 -3.140625 C 11.054688 -3.316406 11.488281 -3.515625 11.90625 -3.734375 C 12.164062 -3.515625 12.367188 -3.25 12.515625 -2.9375 C 12.671875 -2.632812 12.75 -2.28125 12.75 -1.875 C 12.75 -1.238281 12.390625 -0.695312 11.671875 -0.25 C 10.960938 0.195312 9.878906 0.421875 8.421875 0.421875 C 7.378906 0.421875 6.394531 0.273438 5.46875 -0.015625 C 4.539062 -0.316406 3.734375 -0.773438 3.046875 -1.390625 C 2.359375 -2.015625 1.816406 -2.796875 1.421875 -3.734375 C 1.023438 -4.679688 0.828125 -5.816406 0.828125 -7.140625 C 0.828125 -8.359375 1.015625 -9.429688 1.390625 -10.359375 C 1.773438 -11.296875 2.300781 -12.082031 2.96875 -12.71875 C 3.632812 -13.363281 4.410156 -13.847656 5.296875 -14.171875 C 6.191406 -14.503906 7.148438 -14.671875 8.171875 -14.671875 C 9.609375 -14.671875 10.722656 -14.4375 11.515625 -13.96875 C 12.304688 -13.5 12.703125 -12.894531 12.703125 -12.15625 C 12.703125 -11.75 12.597656 -11.394531 12.390625 -11.09375 C 12.191406 -10.800781 11.957031 -10.566406 11.6875 -10.390625 C 11.28125 -10.660156 10.84375 -10.890625 10.375 -11.078125 C 9.914062 -11.265625 9.382812 -11.359375 8.78125 -11.359375 Z M 8.78125 -11.359375 "/></g></g></g><g fill="#a6a6a6" fill-opacity="1"><g transform="translate(187.229548, 19.811299)"><g><path d="M 0.828125 -7.140625 C 0.828125 -8.359375 1.015625 -9.4375 1.390625 -10.375 C 1.773438 -11.3125 2.300781 -12.097656 2.96875 -12.734375 C 3.632812 -13.367188 4.414062 -13.847656 5.3125 -14.171875 C 6.21875 -14.503906 7.191406 -14.671875 8.234375 -14.671875 C 9.285156 -14.671875 10.257812 -14.503906 11.15625 -14.171875 C 12.0625 -13.847656 12.847656 -13.367188 13.515625 -12.734375 C 14.191406 -12.097656 14.71875 -11.3125 15.09375 -10.375 C 15.476562 -9.4375 15.671875 -8.359375 15.671875 -7.140625 C 15.671875 -5.910156 15.484375 -4.820312 15.109375 -3.875 C 14.734375 -2.9375 14.210938 -2.148438 13.546875 -1.515625 C 12.890625 -0.878906 12.101562 -0.394531 11.1875 -0.0625 C 10.28125 0.257812 9.296875 0.421875 8.234375 0.421875 C 7.171875 0.421875 6.1875 0.253906 5.28125 -0.078125 C 4.375 -0.421875 3.59375 -0.910156 2.9375 -1.546875 C 2.28125 -2.191406 1.765625 -2.984375 1.390625 -3.921875 C 1.015625 -4.859375 0.828125 -5.929688 0.828125 -7.140625 Z M 5.046875 -7.140625 C 5.046875 -5.710938 5.332031 -4.644531 5.90625 -3.9375 C 6.488281 -3.238281 7.265625 -2.890625 8.234375 -2.890625 C 9.222656 -2.890625 10.003906 -3.238281 10.578125 -3.9375 C 11.160156 -4.644531 11.453125 -5.710938 11.453125 -7.140625 C 11.453125 -8.546875 11.164062 -9.597656 10.59375 -10.296875 C 10.019531 -11.003906 9.242188 -11.359375 8.265625 -11.359375 C 7.296875 -11.359375 6.515625 -11.007812 5.921875 -10.3125 C 5.335938 -9.613281 5.046875 -8.554688 5.046875 -7.140625 Z M 5.046875 -7.140625 "/></g></g></g><g clip-path="url(#cc961cff8d)"><g fill="#a6a6a6" fill-opacity="1"><g transform="translate(204.666382, 19.811299)"><g><path d="M 11.359375 -3.5 C 11.148438 -3.320312 10.882812 -3.179688 10.5625 -3.078125 C 10.25 -2.984375 9.878906 -2.9375 9.453125 -2.9375 C 8.890625 -2.9375 8.425781 -3.003906 8.0625 -3.140625 C 7.695312 -3.285156 7.457031 -3.53125 7.34375 -3.875 C 6.90625 -5.25 6.546875 -6.363281 6.265625 -7.21875 C 5.984375 -8.070312 5.765625 -8.816406 5.609375 -9.453125 L 5.484375 -9.453125 C 5.441406 -8.535156 5.40625 -7.695312 5.375 -6.9375 C 5.351562 -6.175781 5.335938 -5.4375 5.328125 -4.71875 C 5.328125 -4 5.3125 -3.269531 5.28125 -2.53125 C 5.257812 -1.800781 5.226562 -0.988281 5.1875 -0.09375 C 4.976562 -0.0078125 4.707031 0.0546875 4.375 0.109375 C 4.050781 0.160156 3.726562 0.1875 3.40625 0.1875 C 2.71875 0.1875 2.179688 0.078125 1.796875 -0.140625 C 1.410156 -0.359375 1.21875 -0.757812 1.21875 -1.34375 L 1.90625 -13.3125 C 2.03125 -13.507812 2.300781 -13.722656 2.71875 -13.953125 C 3.144531 -14.191406 3.738281 -14.3125 4.5 -14.3125 C 5.332031 -14.3125 5.984375 -14.179688 6.453125 -13.921875 C 6.921875 -13.671875 7.265625 -13.253906 7.484375 -12.671875 C 7.628906 -12.296875 7.78125 -11.863281 7.9375 -11.375 C 8.101562 -10.894531 8.269531 -10.394531 8.4375 -9.875 C 8.601562 -9.363281 8.765625 -8.851562 8.921875 -8.34375 C 9.078125 -7.832031 9.21875 -7.375 9.34375 -6.96875 L 9.453125 -6.96875 C 9.828125 -8.28125 10.203125 -9.550781 10.578125 -10.78125 C 10.953125 -12.007812 11.296875 -13.039062 11.609375 -13.875 C 11.847656 -14 12.148438 -14.101562 12.515625 -14.1875 C 12.890625 -14.269531 13.300781 -14.3125 13.75 -14.3125 C 14.519531 -14.3125 15.144531 -14.195312 15.625 -13.96875 C 16.113281 -13.75 16.394531 -13.425781 16.46875 -13 C 16.53125 -12.6875 16.597656 -12.203125 16.671875 -11.546875 C 16.742188 -10.898438 16.816406 -10.171875 16.890625 -9.359375 C 16.972656 -8.546875 17.050781 -7.6875 17.125 -6.78125 C 17.207031 -5.875 17.28125 -5 17.34375 -4.15625 C 17.414062 -3.320312 17.472656 -2.554688 17.515625 -1.859375 C 17.566406 -1.171875 17.601562 -0.640625 17.625 -0.265625 C 17.351562 -0.109375 17.070312 0.00390625 16.78125 0.078125 C 16.5 0.148438 16.128906 0.1875 15.671875 0.1875 C 15.078125 0.1875 14.578125 0.0859375 14.171875 -0.109375 C 13.765625 -0.316406 13.546875 -0.71875 13.515625 -1.3125 C 13.421875 -3.019531 13.363281 -4.550781 13.34375 -5.90625 C 13.320312 -7.269531 13.285156 -8.414062 13.234375 -9.34375 L 13.125 -9.34375 C 12.96875 -8.726562 12.738281 -7.957031 12.4375 -7.03125 C 12.144531 -6.113281 11.785156 -4.9375 11.359375 -3.5 Z M 11.359375 -3.5 "/></g></g></g></g><g fill="#000000" fill-opacity="1"><g transform="translate(1.79632, 35.57673)"><g><path d="M 0.84375 -7.5625 L 2.09375 -7.5625 L 2.09375 0 L 0.84375 0 Z M 2.203125 -4 L 5 -7.5625 L 6.484375 -7.5625 L 3.65625 -4 L 6.484375 0 L 5 0 Z M 2.203125 -4 "/></g></g></g><g fill="#000000" fill-opacity="1"><g transform="translate(9.408223, 35.57673)"><g><path d="M 3.21875 0.109375 C 2.59375 0.109375 2.0625 -0.015625 1.625 -0.265625 C 1.195312 -0.515625 0.867188 -0.851562 0.640625 -1.28125 C 0.421875 -1.71875 0.3125 -2.195312 0.3125 -2.71875 C 0.3125 -3.226562 0.410156 -3.6875 0.609375 -4.09375 C 0.816406 -4.507812 1.117188 -4.835938 1.515625 -5.078125 C 1.921875 -5.328125 2.394531 -5.453125 2.9375 -5.453125 C 3.414062 -5.453125 3.828125 -5.351562 4.171875 -5.15625 C 4.523438 -4.957031 4.789062 -4.6875 4.96875 -4.34375 C 5.15625 -4 5.25 -3.601562 5.25 -3.15625 C 5.25 -2.925781 5.222656 -2.707031 5.171875 -2.5 L 1.5625 -2.5 C 1.625 -1.9375 1.816406 -1.53125 2.140625 -1.28125 C 2.460938 -1.03125 2.863281 -0.90625 3.34375 -0.90625 C 3.914062 -0.90625 4.441406 -1.039062 4.921875 -1.3125 L 5.015625 -0.296875 C 4.460938 -0.0234375 3.863281 0.109375 3.21875 0.109375 Z M 4.015625 -3.3125 C 4.015625 -3.632812 3.925781 -3.898438 3.75 -4.109375 C 3.570312 -4.328125 3.296875 -4.4375 2.921875 -4.4375 C 2.222656 -4.4375 1.785156 -4.0625 1.609375 -3.3125 Z M 1.609375 -6.796875 L 3.015625 -8 L 4.421875 -6.796875 L 4.421875 -6.03125 L 3.015625 -6.90625 L 1.609375 -6.03125 Z M 1.609375 -6.796875 "/></g></g></g><g fill="#000000" fill-opacity="1"><g transform="translate(16.037695, 35.57673)"><g><path d="M 3.3125 -5.453125 C 4.007812 -5.453125 4.53125 -5.234375 4.875 -4.796875 C 5.21875 -4.359375 5.390625 -3.753906 5.390625 -2.984375 L 5.390625 0 L 4.203125 0 L 4.203125 -2.90625 C 4.203125 -3.4375 4.109375 -3.820312 3.921875 -4.0625 C 3.742188 -4.3125 3.441406 -4.4375 3.015625 -4.4375 C 2.503906 -4.4375 2.113281 -4.257812 1.84375 -3.90625 L 1.84375 0 L 0.640625 0 L 0.640625 -5.359375 L 1.703125 -5.359375 L 1.75 -4.90625 C 2.207031 -5.269531 2.726562 -5.453125 3.3125 -5.453125 Z M 3.3125 -5.453125 "/></g></g></g><g fill="#000000" fill-opacity="1"><g transform="translate(23.109798, 35.57673)"><g><path d="M 3.296875 -5.453125 C 3.972656 -5.453125 4.476562 -5.226562 4.8125 -4.78125 C 5.15625 -4.34375 5.328125 -3.742188 5.328125 -2.984375 L 5.328125 0 L 4.125 0 L 4.125 -2.875 C 4.125 -3.414062 4.03125 -3.8125 3.84375 -4.0625 C 3.664062 -4.3125 3.378906 -4.4375 2.984375 -4.4375 C 2.515625 -4.4375 2.128906 -4.253906 1.828125 -3.890625 L 1.828125 0 L 0.625 0 L 0.625 -8.09375 L 1.828125 -8.09375 L 1.828125 -4.9375 C 2.046875 -5.101562 2.269531 -5.226562 2.5 -5.3125 C 2.726562 -5.40625 2.992188 -5.453125 3.296875 -5.453125 Z M 3.296875 -5.453125 "/></g></g></g><g fill="#000000" fill-opacity="1"><g transform="translate(30.106337, 35.57673)"><g/></g></g><g fill="#000000" fill-opacity="1"><g transform="translate(33.615783, 35.57673)"><g><path d="M 2.421875 0.109375 C 1.953125 0.109375 1.597656 -0.0195312 1.359375 -0.28125 C 1.117188 -0.550781 1 -0.875 1 -1.25 L 1 -4.390625 L 0.1875 -4.390625 L 0.296875 -5.359375 L 1 -5.359375 L 1 -6.59375 L 2.203125 -6.71875 L 2.203125 -5.359375 L 3.46875 -5.359375 L 3.46875 -4.390625 L 2.203125 -4.390625 L 2.203125 -1.8125 C 2.203125 -1.5 2.21875 -1.28125 2.25 -1.15625 C 2.289062 -1.039062 2.367188 -0.960938 2.484375 -0.921875 C 2.609375 -0.890625 2.820312 -0.875 3.125 -0.875 L 3.453125 -0.875 L 3.34375 0.109375 Z M 2.421875 0.109375 "/></g></g></g><g fill="#000000" fill-opacity="1"><g transform="translate(38.377561, 35.57673)"><g><path d="M 3.296875 -5.453125 C 3.972656 -5.453125 4.476562 -5.226562 4.8125 -4.78125 C 5.15625 -4.34375 5.328125 -3.742188 5.328125 -2.984375 L 5.328125 0 L 4.125 0 L 4.125 -2.875 C 4.125 -3.414062 4.03125 -3.8125 3.84375 -4.0625 C 3.664062 -4.3125 3.378906 -4.4375 2.984375 -4.4375 C 2.515625 -4.4375 2.128906 -4.253906 1.828125 -3.890625 L 1.828125 0 L 0.625 0 L 0.625 -8.09375 L 1.828125 -8.09375 L 1.828125 -4.9375 C 2.046875 -5.101562 2.269531 -5.226562 2.5 -5.3125 C 2.726562 -5.40625 2.992188 -5.453125 3.296875 -5.453125 Z M 3.296875 -5.453125 "/></g></g></g><g fill="#000000" fill-opacity="1"><g transform="translate(45.3741, 35.57673)"><g><path d="M 3.03125 0.109375 C 2.476562 0.109375 1.992188 -0.015625 1.578125 -0.265625 C 1.171875 -0.515625 0.859375 -0.847656 0.640625 -1.265625 C 0.421875 -1.691406 0.3125 -2.160156 0.3125 -2.671875 C 0.3125 -3.179688 0.421875 -3.648438 0.640625 -4.078125 C 0.859375 -4.503906 1.171875 -4.84375 1.578125 -5.09375 C 1.992188 -5.34375 2.476562 -5.46875 3.03125 -5.46875 C 3.59375 -5.46875 4.078125 -5.34375 4.484375 -5.09375 C 4.898438 -4.84375 5.210938 -4.503906 5.421875 -4.078125 C 5.640625 -3.648438 5.75 -3.179688 5.75 -2.671875 C 5.75 -2.160156 5.640625 -1.691406 5.421875 -1.265625 C 5.210938 -0.847656 4.898438 -0.515625 4.484375 -0.265625 C 4.078125 -0.015625 3.59375 0.109375 3.03125 0.109375 Z M 3.03125 -0.90625 C 3.5 -0.90625 3.863281 -1.0625 4.125 -1.375 C 4.394531 -1.695312 4.53125 -2.128906 4.53125 -2.671875 C 4.53125 -3.210938 4.394531 -3.644531 4.125 -3.96875 C 3.863281 -4.289062 3.5 -4.453125 3.03125 -4.453125 C 2.5625 -4.453125 2.195312 -4.289062 1.9375 -3.96875 C 1.6875 -3.644531 1.5625 -3.210938 1.5625 -2.671875 C 1.5625 -2.128906 1.6875 -1.695312 1.9375 -1.375 C 2.195312 -1.0625 2.5625 -0.90625 3.03125 -0.90625 Z M 1.625 -6.796875 L 3.03125 -8 L 4.4375 -6.796875 L 4.4375 -6.03125 L 3.03125 -6.90625 L 1.625 -6.03125 Z M 1.625 -6.796875 "/></g></g></g><g fill="#000000" fill-opacity="1"><g transform="translate(52.532568, 35.57673)"><g><path d="M 3.3125 -5.453125 C 4.007812 -5.453125 4.53125 -5.234375 4.875 -4.796875 C 5.21875 -4.359375 5.390625 -3.753906 5.390625 -2.984375 L 5.390625 0 L 4.203125 0 L 4.203125 -2.90625 C 4.203125 -3.4375 4.109375 -3.820312 3.921875 -4.0625 C 3.742188 -4.3125 3.441406 -4.4375 3.015625 -4.4375 C 2.503906 -4.4375 2.113281 -4.257812 1.84375 -3.90625 L 1.84375 0 L 0.640625 0 L 0.640625 -5.359375 L 1.703125 -5.359375 L 1.75 -4.90625 C 2.207031 -5.269531 2.726562 -5.453125 3.3125 -5.453125 Z M 3.3125 -5.453125 "/></g></g></g><g fill="#000000" fill-opacity="1"><g transform="translate(59.604669, 35.57673)"><g><path d="M 2.78125 2.703125 C 2.019531 2.703125 1.410156 2.566406 0.953125 2.296875 C 0.492188 2.023438 0.265625 1.644531 0.265625 1.15625 C 0.265625 0.625 0.5625 0.203125 1.15625 -0.109375 C 0.832031 -0.296875 0.671875 -0.535156 0.671875 -0.828125 C 0.671875 -1.171875 0.859375 -1.425781 1.234375 -1.59375 C 0.960938 -1.78125 0.75 -2.023438 0.59375 -2.328125 C 0.445312 -2.628906 0.375 -2.96875 0.375 -3.34375 C 0.375 -3.738281 0.457031 -4.097656 0.625 -4.421875 C 0.800781 -4.742188 1.050781 -5 1.375 -5.1875 C 1.707031 -5.375 2.101562 -5.46875 2.5625 -5.46875 C 3.050781 -5.46875 3.472656 -5.34375 3.828125 -5.09375 C 3.960938 -5.175781 4.132812 -5.238281 4.34375 -5.28125 C 4.5625 -5.332031 4.789062 -5.359375 5.03125 -5.359375 L 5.28125 -5.359375 L 5.1875 -4.59375 L 4.78125 -4.59375 C 4.644531 -4.59375 4.507812 -4.582031 4.375 -4.5625 C 4.625 -4.21875 4.75 -3.8125 4.75 -3.34375 C 4.75 -2.945312 4.660156 -2.585938 4.484375 -2.265625 C 4.316406 -1.941406 4.066406 -1.679688 3.734375 -1.484375 C 3.398438 -1.296875 3.007812 -1.203125 2.5625 -1.203125 C 2.351562 -1.203125 2.144531 -1.234375 1.9375 -1.296875 C 1.820312 -1.253906 1.765625 -1.179688 1.765625 -1.078125 C 1.765625 -0.992188 1.820312 -0.921875 1.9375 -0.859375 C 2.050781 -0.804688 2.226562 -0.765625 2.46875 -0.734375 L 3.5625 -0.578125 C 4.78125 -0.398438 5.390625 0.113281 5.390625 0.96875 C 5.390625 1.519531 5.15625 1.945312 4.6875 2.25 C 4.226562 2.550781 3.59375 2.703125 2.78125 2.703125 Z M 2.5625 -2.125 C 2.90625 -2.125 3.171875 -2.234375 3.359375 -2.453125 C 3.546875 -2.671875 3.640625 -2.96875 3.640625 -3.34375 C 3.640625 -3.71875 3.546875 -4.015625 3.359375 -4.234375 C 3.171875 -4.453125 2.90625 -4.5625 2.5625 -4.5625 C 2.21875 -4.5625 1.953125 -4.445312 1.765625 -4.21875 C 1.578125 -4 1.484375 -3.707031 1.484375 -3.34375 C 1.484375 -2.96875 1.578125 -2.671875 1.765625 -2.453125 C 1.953125 -2.234375 2.21875 -2.125 2.5625 -2.125 Z M 2.84375 1.75 C 3.800781 1.75 4.28125 1.515625 4.28125 1.046875 C 4.28125 0.847656 4.195312 0.695312 4.03125 0.59375 C 3.875 0.488281 3.617188 0.410156 3.265625 0.359375 L 1.96875 0.15625 C 1.769531 0.226562 1.609375 0.332031 1.484375 0.46875 C 1.367188 0.601562 1.3125 0.757812 1.3125 0.9375 C 1.3125 1.207031 1.441406 1.410156 1.703125 1.546875 C 1.972656 1.679688 2.351562 1.75 2.84375 1.75 Z M 2.84375 1.75 "/></g></g></g><g fill="#000000" fill-opacity="1"><g transform="translate(66.082998, 35.57673)"><g/></g></g><g fill="#000000" fill-opacity="1"><g transform="translate(69.592441, 35.57673)"><g><path d="M 2.421875 0.109375 C 1.953125 0.109375 1.597656 -0.0195312 1.359375 -0.28125 C 1.117188 -0.550781 1 -0.875 1 -1.25 L 1 -4.390625 L 0.1875 -4.390625 L 0.296875 -5.359375 L 1 -5.359375 L 1 -6.59375 L 2.203125 -6.71875 L 2.203125 -5.359375 L 3.46875 -5.359375 L 3.46875 -4.390625 L 2.203125 -4.390625 L 2.203125 -1.8125 C 2.203125 -1.5 2.21875 -1.28125 2.25 -1.15625 C 2.289062 -1.039062 2.367188 -0.960938 2.484375 -0.921875 C 2.609375 -0.890625 2.820312 -0.875 3.125 -0.875 L 3.453125 -0.875 L 3.34375 0.109375 Z M 2.421875 0.109375 "/></g></g></g><g fill="#000000" fill-opacity="1"><g transform="translate(74.354216, 35.57673)"><g><path d="M 0.640625 -7.5625 L 1.84375 -7.5625 L 1.84375 -6.3125 L 0.640625 -6.3125 Z M 0.640625 -5.359375 L 1.84375 -5.359375 L 1.84375 0 L 0.640625 0 Z M 0.640625 -5.359375 "/></g></g></g><g fill="#000000" fill-opacity="1"><g transform="translate(77.917644, 35.57673)"><g><path d="M 3.3125 -5.453125 C 4.007812 -5.453125 4.53125 -5.234375 4.875 -4.796875 C 5.21875 -4.359375 5.390625 -3.753906 5.390625 -2.984375 L 5.390625 0 L 4.203125 0 L 4.203125 -2.90625 C 4.203125 -3.4375 4.109375 -3.820312 3.921875 -4.0625 C 3.742188 -4.3125 3.441406 -4.4375 3.015625 -4.4375 C 2.503906 -4.4375 2.113281 -4.257812 1.84375 -3.90625 L 1.84375 0 L 0.640625 0 L 0.640625 -5.359375 L 1.703125 -5.359375 L 1.75 -4.90625 C 2.207031 -5.269531 2.726562 -5.453125 3.3125 -5.453125 Z M 3.3125 -5.453125 "/></g></g></g><g fill="#000000" fill-opacity="1"><g transform="translate(84.989745, 35.57673)"><g/></g></g><g fill="#000000" fill-opacity="1"><g transform="translate(88.499189, 35.57673)"><g><path d="M 3.40625 -5.453125 C 3.90625 -5.453125 4.332031 -5.328125 4.6875 -5.078125 C 5.050781 -4.835938 5.328125 -4.503906 5.515625 -4.078125 C 5.703125 -3.660156 5.796875 -3.191406 5.796875 -2.671875 C 5.796875 -2.160156 5.703125 -1.691406 5.515625 -1.265625 C 5.335938 -0.835938 5.066406 -0.5 4.703125 -0.25 C 4.347656 -0.0078125 3.914062 0.109375 3.40625 0.109375 C 3.0625 0.109375 2.765625 0.0664062 2.515625 -0.015625 C 2.273438 -0.109375 2.050781 -0.25 1.84375 -0.4375 L 1.84375 2.609375 L 0.640625 2.609375 L 0.640625 -5.359375 L 1.59375 -5.359375 L 1.734375 -4.78125 C 1.960938 -5 2.207031 -5.164062 2.46875 -5.28125 C 2.738281 -5.394531 3.050781 -5.453125 3.40625 -5.453125 Z M 3.203125 -0.90625 C 3.628906 -0.90625 3.960938 -1.0625 4.203125 -1.375 C 4.441406 -1.695312 4.5625 -2.128906 4.5625 -2.671875 C 4.5625 -3.210938 4.441406 -3.640625 4.203125 -3.953125 C 3.960938 -4.273438 3.628906 -4.4375 3.203125 -4.4375 C 2.753906 -4.4375 2.40625 -4.28125 2.15625 -3.96875 C 1.90625 -3.664062 1.78125 -3.234375 1.78125 -2.671875 C 1.78125 -2.109375 1.90625 -1.671875 2.15625 -1.359375 C 2.40625 -1.054688 2.753906 -0.90625 3.203125 -0.90625 Z M 3.203125 -0.90625 "/></g></g></g><g fill="#000000" fill-opacity="1"><g transform="translate(95.700839, 35.57673)"><g><path d="M 3.296875 -5.453125 C 3.972656 -5.453125 4.476562 -5.226562 4.8125 -4.78125 C 5.15625 -4.34375 5.328125 -3.742188 5.328125 -2.984375 L 5.328125 0 L 4.125 0 L 4.125 -2.875 C 4.125 -3.414062 4.03125 -3.8125 3.84375 -4.0625 C 3.664062 -4.3125 3.378906 -4.4375 2.984375 -4.4375 C 2.515625 -4.4375 2.128906 -4.253906 1.828125 -3.890625 L 1.828125 0 L 0.625 0 L 0.625 -8.09375 L 1.828125 -8.09375 L 1.828125 -4.9375 C 2.046875 -5.101562 2.269531 -5.226562 2.5 -5.3125 C 2.726562 -5.40625 2.992188 -5.453125 3.296875 -5.453125 Z M 3.296875 -5.453125 "/></g></g></g><g fill="#000000" fill-opacity="1"><g transform="translate(102.697376, 35.57673)"><g><path d="M 3.03125 0.109375 C 2.476562 0.109375 1.992188 -0.015625 1.578125 -0.265625 C 1.171875 -0.515625 0.859375 -0.847656 0.640625 -1.265625 C 0.421875 -1.691406 0.3125 -2.160156 0.3125 -2.671875 C 0.3125 -3.179688 0.421875 -3.648438 0.640625 -4.078125 C 0.859375 -4.503906 1.171875 -4.84375 1.578125 -5.09375 C 1.992188 -5.34375 2.476562 -5.46875 3.03125 -5.46875 C 3.59375 -5.46875 4.078125 -5.34375 4.484375 -5.09375 C 4.898438 -4.84375 5.210938 -4.503906 5.421875 -4.078125 C 5.640625 -3.648438 5.75 -3.179688 5.75 -2.671875 C 5.75 -2.160156 5.640625 -1.691406 5.421875 -1.265625 C 5.210938 -0.847656 4.898438 -0.515625 4.484375 -0.265625 C 4.078125 -0.015625 3.59375 0.109375 3.03125 0.109375 Z M 3.03125 -0.90625 C 3.5 -0.90625 3.863281 -1.0625 4.125 -1.375 C 4.394531 -1.695312 4.53125 -2.128906 4.53125 -2.671875 C 4.53125 -3.210938 4.394531 -3.644531 4.125 -3.96875 C 3.863281 -4.289062 3.5 -4.453125 3.03125 -4.453125 C 2.5625 -4.453125 2.195312 -4.289062 1.9375 -3.96875 C 1.6875 -3.644531 1.5625 -3.210938 1.5625 -2.671875 C 1.5625 -2.128906 1.6875 -1.695312 1.9375 -1.375 C 2.195312 -1.0625 2.5625 -0.90625 3.03125 -0.90625 Z M 1.984375 -6.984375 L 1.984375 -8.15625 L 4.0625 -6.96875 L 4.0625 -6.171875 Z M 1.984375 -6.984375 "/></g></g></g><g fill="#000000" fill-opacity="1"><g transform="translate(109.855849, 35.57673)"><g><path d="M 3.3125 -5.453125 C 4.007812 -5.453125 4.53125 -5.234375 4.875 -4.796875 C 5.21875 -4.359375 5.390625 -3.753906 5.390625 -2.984375 L 5.390625 0 L 4.203125 0 L 4.203125 -2.90625 C 4.203125 -3.4375 4.109375 -3.820312 3.921875 -4.0625 C 3.742188 -4.3125 3.441406 -4.4375 3.015625 -4.4375 C 2.503906 -4.4375 2.113281 -4.257812 1.84375 -3.90625 L 1.84375 0 L 0.640625 0 L 0.640625 -5.359375 L 1.703125 -5.359375 L 1.75 -4.90625 C 2.207031 -5.269531 2.726562 -5.453125 3.3125 -5.453125 Z M 3.3125 -5.453125 "/></g></g></g><g fill="#000000" fill-opacity="1"><g transform="translate(116.927956, 35.57673)"><g><path d="M 2.78125 2.703125 C 2.019531 2.703125 1.410156 2.566406 0.953125 2.296875 C 0.492188 2.023438 0.265625 1.644531 0.265625 1.15625 C 0.265625 0.625 0.5625 0.203125 1.15625 -0.109375 C 0.832031 -0.296875 0.671875 -0.535156 0.671875 -0.828125 C 0.671875 -1.171875 0.859375 -1.425781 1.234375 -1.59375 C 0.960938 -1.78125 0.75 -2.023438 0.59375 -2.328125 C 0.445312 -2.628906 0.375 -2.96875 0.375 -3.34375 C 0.375 -3.738281 0.457031 -4.097656 0.625 -4.421875 C 0.800781 -4.742188 1.050781 -5 1.375 -5.1875 C 1.707031 -5.375 2.101562 -5.46875 2.5625 -5.46875 C 3.050781 -5.46875 3.472656 -5.34375 3.828125 -5.09375 C 3.960938 -5.175781 4.132812 -5.238281 4.34375 -5.28125 C 4.5625 -5.332031 4.789062 -5.359375 5.03125 -5.359375 L 5.28125 -5.359375 L 5.1875 -4.59375 L 4.78125 -4.59375 C 4.644531 -4.59375 4.507812 -4.582031 4.375 -4.5625 C 4.625 -4.21875 4.75 -3.8125 4.75 -3.34375 C 4.75 -2.945312 4.660156 -2.585938 4.484375 -2.265625 C 4.316406 -1.941406 4.066406 -1.679688 3.734375 -1.484375 C 3.398438 -1.296875 3.007812 -1.203125 2.5625 -1.203125 C 2.351562 -1.203125 2.144531 -1.234375 1.9375 -1.296875 C 1.820312 -1.253906 1.765625 -1.179688 1.765625 -1.078125 C 1.765625 -0.992188 1.820312 -0.921875 1.9375 -0.859375 C 2.050781 -0.804688 2.226562 -0.765625 2.46875 -0.734375 L 3.5625 -0.578125 C 4.78125 -0.398438 5.390625 0.113281 5.390625 0.96875 C 5.390625 1.519531 5.15625 1.945312 4.6875 2.25 C 4.226562 2.550781 3.59375 2.703125 2.78125 2.703125 Z M 2.5625 -2.125 C 2.90625 -2.125 3.171875 -2.234375 3.359375 -2.453125 C 3.546875 -2.671875 3.640625 -2.96875 3.640625 -3.34375 C 3.640625 -3.71875 3.546875 -4.015625 3.359375 -4.234375 C 3.171875 -4.453125 2.90625 -4.5625 2.5625 -4.5625 C 2.21875 -4.5625 1.953125 -4.445312 1.765625 -4.21875 C 1.578125 -4 1.484375 -3.707031 1.484375 -3.34375 C 1.484375 -2.96875 1.578125 -2.671875 1.765625 -2.453125 C 1.953125 -2.234375 2.21875 -2.125 2.5625 -2.125 Z M 2.84375 1.75 C 3.800781 1.75 4.28125 1.515625 4.28125 1.046875 C 4.28125 0.847656 4.195312 0.695312 4.03125 0.59375 C 3.875 0.488281 3.617188 0.410156 3.265625 0.359375 L 1.96875 0.15625 C 1.769531 0.226562 1.609375 0.332031 1.484375 0.46875 C 1.367188 0.601562 1.3125 0.757812 1.3125 0.9375 C 1.3125 1.207031 1.441406 1.410156 1.703125 1.546875 C 1.972656 1.679688 2.351562 1.75 2.84375 1.75 Z M 2.84375 1.75 "/></g></g></g><g fill="#000000" fill-opacity="1"><g transform="translate(123.406291, 35.57673)"><g/></g></g><g fill="#000000" fill-opacity="1"><g transform="translate(126.91574, 35.57673)"><g><path d="M 2.421875 0.109375 C 1.953125 0.109375 1.597656 -0.0195312 1.359375 -0.28125 C 1.117188 -0.550781 1 -0.875 1 -1.25 L 1 -4.390625 L 0.1875 -4.390625 L 0.296875 -5.359375 L 1 -5.359375 L 1 -6.59375 L 2.203125 -6.71875 L 2.203125 -5.359375 L 3.46875 -5.359375 L 3.46875 -4.390625 L 2.203125 -4.390625 L 2.203125 -1.8125 C 2.203125 -1.5 2.21875 -1.28125 2.25 -1.15625 C 2.289062 -1.039062 2.367188 -0.960938 2.484375 -0.921875 C 2.609375 -0.890625 2.820312 -0.875 3.125 -0.875 L 3.453125 -0.875 L 3.34375 0.109375 Z M 2.421875 0.109375 "/></g></g></g><g fill="#000000" fill-opacity="1"><g transform="translate(131.67752, 35.57673)"><g><path d="M 0.640625 -5.359375 L 1.734375 -5.359375 L 1.796875 -4.671875 C 1.984375 -4.910156 2.203125 -5.101562 2.453125 -5.25 C 2.710938 -5.394531 2.976562 -5.46875 3.25 -5.46875 C 3.320312 -5.46875 3.398438 -5.457031 3.484375 -5.4375 L 3.390625 -4.203125 C 3.273438 -4.242188 3.140625 -4.265625 2.984375 -4.265625 C 2.742188 -4.265625 2.519531 -4.207031 2.3125 -4.09375 C 2.101562 -3.988281 1.957031 -3.859375 1.875 -3.703125 L 1.875 0 L 0.640625 0 Z M 0.640625 -5.359375 "/></g></g></g><g fill="#000000" fill-opacity="1"><g transform="translate(136.266568, 35.57673)"><g><path d="M 3.03125 0.109375 C 2.476562 0.109375 1.992188 -0.015625 1.578125 -0.265625 C 1.171875 -0.515625 0.859375 -0.847656 0.640625 -1.265625 C 0.421875 -1.691406 0.3125 -2.160156 0.3125 -2.671875 C 0.3125 -3.179688 0.421875 -3.648438 0.640625 -4.078125 C 0.859375 -4.503906 1.171875 -4.84375 1.578125 -5.09375 C 1.992188 -5.34375 2.476562 -5.46875 3.03125 -5.46875 C 3.59375 -5.46875 4.078125 -5.34375 4.484375 -5.09375 C 4.898438 -4.84375 5.210938 -4.503906 5.421875 -4.078125 C 5.640625 -3.648438 5.75 -3.179688 5.75 -2.671875 C 5.75 -2.160156 5.640625 -1.691406 5.421875 -1.265625 C 5.210938 -0.847656 4.898438 -0.515625 4.484375 -0.265625 C 4.078125 -0.015625 3.59375 0.109375 3.03125 0.109375 Z M 3.03125 -0.90625 C 3.5 -0.90625 3.863281 -1.0625 4.125 -1.375 C 4.394531 -1.695312 4.53125 -2.128906 4.53125 -2.671875 C 4.53125 -3.210938 4.394531 -3.644531 4.125 -3.96875 C 3.863281 -4.289062 3.5 -4.453125 3.03125 -4.453125 C 2.5625 -4.453125 2.195312 -4.289062 1.9375 -3.96875 C 1.6875 -3.644531 1.5625 -3.210938 1.5625 -2.671875 C 1.5625 -2.128906 1.6875 -1.695312 1.9375 -1.375 C 2.195312 -1.0625 2.5625 -0.90625 3.03125 -0.90625 Z M 2.484375 0.875 L 3.578125 0.875 L 3.578125 1.890625 L 2.484375 1.890625 Z M 2.484375 0.875 "/></g></g></g><g fill="#000000" fill-opacity="1"><g transform="translate(143.425041, 35.57673)"><g/></g></g><g fill="#000000" fill-opacity="1"><g transform="translate(146.93449, 35.57673)"><g><path d="M 2.15625 0.109375 C 1.5 0.109375 0.890625 -0.03125 0.328125 -0.3125 L 0.453125 -1.375 C 1.003906 -1.019531 1.554688 -0.84375 2.109375 -0.84375 C 2.410156 -0.84375 2.632812 -0.890625 2.78125 -0.984375 C 2.9375 -1.085938 3.015625 -1.234375 3.015625 -1.421875 C 3.015625 -1.640625 2.9375 -1.800781 2.78125 -1.90625 C 2.625 -2.019531 2.367188 -2.140625 2.015625 -2.265625 C 1.484375 -2.441406 1.082031 -2.644531 0.8125 -2.875 C 0.539062 -3.113281 0.40625 -3.453125 0.40625 -3.890625 C 0.40625 -4.347656 0.578125 -4.722656 0.921875 -5.015625 C 1.273438 -5.316406 1.769531 -5.46875 2.40625 -5.46875 C 3 -5.46875 3.53125 -5.335938 4 -5.078125 L 3.875 -4.03125 C 3.632812 -4.195312 3.398438 -4.328125 3.171875 -4.421875 C 2.941406 -4.515625 2.691406 -4.5625 2.421875 -4.5625 C 2.160156 -4.5625 1.957031 -4.507812 1.8125 -4.40625 C 1.664062 -4.300781 1.59375 -4.15625 1.59375 -3.96875 C 1.59375 -3.820312 1.628906 -3.703125 1.703125 -3.609375 C 1.785156 -3.515625 1.898438 -3.429688 2.046875 -3.359375 C 2.203125 -3.296875 2.4375 -3.207031 2.75 -3.09375 C 3.238281 -2.914062 3.609375 -2.707031 3.859375 -2.46875 C 4.117188 -2.238281 4.25 -1.910156 4.25 -1.484375 C 4.25 -1.003906 4.070312 -0.617188 3.71875 -0.328125 C 3.375 -0.0351562 2.851562 0.109375 2.15625 0.109375 Z M 2.15625 0.109375 "/></g></g></g><g fill="#000000" fill-opacity="1"><g transform="translate(152.549152, 35.57673)"><g><path d="M 3.03125 0.109375 C 2.476562 0.109375 1.992188 -0.015625 1.578125 -0.265625 C 1.171875 -0.515625 0.859375 -0.847656 0.640625 -1.265625 C 0.421875 -1.691406 0.3125 -2.160156 0.3125 -2.671875 C 0.3125 -3.179688 0.421875 -3.648438 0.640625 -4.078125 C 0.859375 -4.503906 1.171875 -4.84375 1.578125 -5.09375 C 1.992188 -5.34375 2.476562 -5.46875 3.03125 -5.46875 C 3.59375 -5.46875 4.078125 -5.34375 4.484375 -5.09375 C 4.898438 -4.84375 5.210938 -4.503906 5.421875 -4.078125 C 5.640625 -3.648438 5.75 -3.179688 5.75 -2.671875 C 5.75 -2.160156 5.640625 -1.691406 5.421875 -1.265625 C 5.210938 -0.847656 4.898438 -0.515625 4.484375 -0.265625 C 4.078125 -0.015625 3.59375 0.109375 3.03125 0.109375 Z M 3.03125 -0.90625 C 3.5 -0.90625 3.863281 -1.0625 4.125 -1.375 C 4.394531 -1.695312 4.53125 -2.128906 4.53125 -2.671875 C 4.53125 -3.210938 4.394531 -3.644531 4.125 -3.96875 C 3.863281 -4.289062 3.5 -4.453125 3.03125 -4.453125 C 2.5625 -4.453125 2.195312 -4.289062 1.9375 -3.96875 C 1.6875 -3.644531 1.5625 -3.210938 1.5625 -2.671875 C 1.5625 -2.128906 1.6875 -1.695312 1.9375 -1.375 C 2.195312 -1.0625 2.5625 -0.90625 3.03125 -0.90625 Z M 4.5625 -8.828125 L 5.734375 -8.828125 L 4.65625 -7.484375 L 3.859375 -7.484375 Z M 1.625 -6.625 L 3.03125 -7.609375 L 4.4375 -6.625 L 4.4375 -5.875 L 3.03125 -6.625 L 1.625 -5.875 Z M 1.625 -6.625 "/></g></g></g><g fill="#000000" fill-opacity="1"><g transform="translate(159.707626, 35.57673)"><g/></g></g><g fill="#000000" fill-opacity="1"><g transform="translate(163.217075, 35.57673)"><g><path d="M 1.59375 -5.78125 C 1.257812 -5.53125 0.921875 -5.367188 0.578125 -5.296875 L 0.4375 -6.375 C 0.695312 -6.445312 0.976562 -6.597656 1.28125 -6.828125 C 1.582031 -7.066406 1.789062 -7.3125 1.90625 -7.5625 L 2.84375 -7.5625 L 2.84375 0 L 1.59375 0 Z M 1.59375 -5.78125 "/></g></g></g><g fill="#000000" fill-opacity="1"><g transform="translate(168.108404, 35.57673)"><g/></g></g><g fill="#000000" fill-opacity="1"><g transform="translate(171.617853, 35.57673)"><g><path d="M 6.625 -7.5625 L 3.9375 0 L 2.703125 0 L 0.015625 -7.5625 L 1.296875 -7.5625 L 3.328125 -1.796875 L 5.359375 -7.5625 Z M 6.625 -7.5625 "/></g></g></g><g fill="#000000" fill-opacity="1"><g transform="translate(179.348518, 35.57673)"><g><path d="M 0.640625 -7.5625 L 1.84375 -7.5625 L 1.84375 -6.3125 L 0.640625 -6.3125 Z M 0.640625 -5.359375 L 1.84375 -5.359375 L 1.84375 0 L 0.640625 0 Z M 0.640625 -5.359375 "/></g></g></g><g fill="#000000" fill-opacity="1"><g transform="translate(182.911952, 35.57673)"><g><path d="M 3.21875 0.109375 C 2.59375 0.109375 2.0625 -0.015625 1.625 -0.265625 C 1.195312 -0.515625 0.867188 -0.851562 0.640625 -1.28125 C 0.421875 -1.71875 0.3125 -2.195312 0.3125 -2.71875 C 0.3125 -3.226562 0.410156 -3.6875 0.609375 -4.09375 C 0.816406 -4.507812 1.117188 -4.835938 1.515625 -5.078125 C 1.921875 -5.328125 2.394531 -5.453125 2.9375 -5.453125 C 3.414062 -5.453125 3.828125 -5.351562 4.171875 -5.15625 C 4.523438 -4.957031 4.789062 -4.6875 4.96875 -4.34375 C 5.15625 -4 5.25 -3.601562 5.25 -3.15625 C 5.25 -2.925781 5.222656 -2.707031 5.171875 -2.5 L 1.5625 -2.5 C 1.625 -1.9375 1.816406 -1.53125 2.140625 -1.28125 C 2.460938 -1.03125 2.863281 -0.90625 3.34375 -0.90625 C 3.914062 -0.90625 4.441406 -1.039062 4.921875 -1.3125 L 5.015625 -0.296875 C 4.460938 -0.0234375 3.863281 0.109375 3.21875 0.109375 Z M 4.015625 -3.3125 C 4.015625 -3.632812 3.925781 -3.898438 3.75 -4.109375 C 3.570312 -4.328125 3.296875 -4.4375 2.921875 -4.4375 C 2.222656 -4.4375 1.785156 -4.0625 1.609375 -3.3125 Z M 1.609375 -6.796875 L 3.015625 -8 L 4.421875 -6.796875 L 4.421875 -6.03125 L 3.015625 -6.90625 L 1.609375 -6.03125 Z M 2.234375 0.875 L 3.328125 0.875 L 3.328125 1.890625 L 2.234375 1.890625 Z M 2.234375 0.875 "/></g></g></g><g fill="#000000" fill-opacity="1"><g transform="translate(189.541427, 35.57673)"><g><path d="M 2.421875 0.109375 C 1.953125 0.109375 1.597656 -0.0195312 1.359375 -0.28125 C 1.117188 -0.550781 1 -0.875 1 -1.25 L 1 -4.390625 L 0.1875 -4.390625 L 0.296875 -5.359375 L 1 -5.359375 L 1 -6.59375 L 2.203125 -6.71875 L 2.203125 -5.359375 L 3.46875 -5.359375 L 3.46875 -4.390625 L 2.203125 -4.390625 L 2.203125 -1.8125 C 2.203125 -1.5 2.21875 -1.28125 2.25 -1.15625 C 2.289062 -1.039062 2.367188 -0.960938 2.484375 -0.921875 C 2.609375 -0.890625 2.820312 -0.875 3.125 -0.875 L 3.453125 -0.875 L 3.34375 0.109375 Z M 2.421875 0.109375 "/></g></g></g><g fill="#000000" fill-opacity="1"><g transform="translate(194.303196, 35.57673)"><g/></g></g><g fill="#000000" fill-opacity="1"><g transform="translate(197.812645, 35.57673)"><g><path d="M 0.84375 -7.5625 L 2.109375 -7.5625 L 5.515625 -2.390625 L 5.515625 -7.5625 L 6.78125 -7.5625 L 6.78125 0 L 5.75 0 L 2.09375 -5.46875 L 2.09375 0 L 0.84375 0 Z M 0.84375 -7.5625 "/></g></g></g><g fill="#000000" fill-opacity="1"><g transform="translate(206.514941, 35.57673)"><g><path d="M 1.828125 0.109375 C 1.367188 0.109375 0.988281 -0.0351562 0.6875 -0.328125 C 0.382812 -0.617188 0.234375 -1.003906 0.234375 -1.484375 C 0.234375 -1.953125 0.398438 -2.320312 0.734375 -2.59375 C 1.066406 -2.875 1.460938 -3.070312 1.921875 -3.1875 C 2.390625 -3.3125 2.851562 -3.382812 3.3125 -3.40625 C 3.300781 -3.78125 3.21875 -4.039062 3.0625 -4.1875 C 2.90625 -4.332031 2.644531 -4.40625 2.28125 -4.40625 C 2.050781 -4.40625 1.820312 -4.367188 1.59375 -4.296875 C 1.363281 -4.234375 1.109375 -4.125 0.828125 -3.96875 L 0.703125 -4.953125 C 1.304688 -5.285156 1.941406 -5.453125 2.609375 -5.453125 C 3.253906 -5.453125 3.734375 -5.273438 4.046875 -4.921875 C 4.367188 -4.566406 4.53125 -3.976562 4.53125 -3.15625 L 4.53125 -1.828125 C 4.53125 -1.546875 4.539062 -1.34375 4.5625 -1.21875 C 4.59375 -1.09375 4.640625 -1.003906 4.703125 -0.953125 C 4.773438 -0.898438 4.890625 -0.875 5.046875 -0.875 L 5.203125 -0.875 L 5.0625 0.109375 L 4.734375 0.109375 C 4.378906 0.109375 4.109375 0.0507812 3.921875 -0.0625 C 3.734375 -0.175781 3.582031 -0.347656 3.46875 -0.578125 C 3.28125 -0.367188 3.039062 -0.203125 2.75 -0.078125 C 2.46875 0.046875 2.160156 0.109375 1.828125 0.109375 Z M 2.25 -0.828125 C 2.4375 -0.828125 2.628906 -0.867188 2.828125 -0.953125 C 3.023438 -1.046875 3.191406 -1.175781 3.328125 -1.34375 L 3.328125 -2.578125 C 2.773438 -2.554688 2.328125 -2.457031 1.984375 -2.28125 C 1.648438 -2.113281 1.484375 -1.863281 1.484375 -1.53125 C 1.484375 -1.0625 1.738281 -0.828125 2.25 -0.828125 Z M 2.25 -0.828125 "/></g></g></g><g fill="#000000" fill-opacity="1"><g transform="translate(212.896096, 35.57673)"><g><path d="M 6.734375 -5.453125 C 7.441406 -5.453125 7.96875 -5.242188 8.3125 -4.828125 C 8.65625 -4.410156 8.828125 -3.816406 8.828125 -3.046875 L 8.828125 0 L 7.625 0 L 7.625 -2.984375 C 7.625 -3.484375 7.535156 -3.847656 7.359375 -4.078125 C 7.191406 -4.316406 6.914062 -4.4375 6.53125 -4.4375 C 6.101562 -4.4375 5.796875 -4.304688 5.609375 -4.046875 C 5.421875 -3.785156 5.328125 -3.441406 5.328125 -3.015625 L 5.328125 0 L 4.140625 0 L 4.140625 -2.90625 C 4.140625 -3.445312 4.046875 -3.835938 3.859375 -4.078125 C 3.671875 -4.316406 3.390625 -4.4375 3.015625 -4.4375 C 2.503906 -4.4375 2.113281 -4.253906 1.84375 -3.890625 L 1.84375 0 L 0.640625 0 L 0.640625 -5.359375 L 1.640625 -5.359375 L 1.71875 -4.875 C 2.1875 -5.257812 2.722656 -5.453125 3.328125 -5.453125 C 4.054688 -5.453125 4.59375 -5.164062 4.9375 -4.59375 C 5.125 -4.875 5.367188 -5.085938 5.671875 -5.234375 C 5.972656 -5.378906 6.328125 -5.453125 6.734375 -5.453125 Z M 6.734375 -5.453125 "/></g></g></g></svg>